<svg width="91" height="30" viewBox="0 0 91 30" fill="none" xmlns="http://www.w3.org/2000/svg">
<path d="M43.23 27.09L42.9 26.61C41.92 27.01 40.91 27.32 39.87 27.54C38.85 27.76 37.8 27.87 36.72 27.87C35.2 27.87 33.69 27.68 32.19 27.3C30.71 26.94 29.24 26.46 27.78 25.86C26.32 25.26 24.89 24.58 23.49 23.82C22.11 23.06 20.77 22.29 19.47 21.51C21.03 20.33 22.23 18.87 23.07 17.13C23.91 15.39 24.33 13.56 24.33 11.64C24.33 10 24.02 8.51 23.4 7.17C22.8 5.81 21.97 4.65 20.91 3.69C19.87 2.71 18.64 1.96 17.22 1.44C15.8 0.899999 14.29 0.629999 12.69 0.629999C11.03 0.629999 9.48 0.929999 8.04 1.53C6.6 2.11 5.34 2.93 4.26 3.99C3.2 5.03 2.36 6.26 1.74 7.68C1.12 9.1 0.81 10.64 0.81 12.3C0.81 14.02 1.09 15.6 1.65 17.04C2.21 18.48 3 19.72 4.02 20.76C5.04 21.78 6.27 22.58 7.71 23.16C9.15 23.72 10.75 24 12.51 24C12.97 24 13.41 23.95 13.83 23.85C14.25 23.75 14.66 23.64 15.06 23.52C15.4 23.42 15.71 23.33 15.99 23.25C16.29 23.15 16.55 23.1 16.77 23.1H16.92C17.32 23.26 17.75 23.45 18.21 23.67C18.67 23.89 19.1 24.12 19.5 24.36C19.72 24.48 19.98 24.62 20.28 24.78C20.6 24.94 20.87 25.07 21.09 25.17C22.13 25.67 23.22 26.17 24.36 26.67C25.52 27.17 26.69 27.61 27.87 27.99C29.05 28.39 30.25 28.71 31.47 28.95C32.69 29.21 33.9 29.34 35.1 29.34C36.56 29.34 37.97 29.15 39.33 28.77C40.69 28.39 41.99 27.83 43.23 27.09ZM20.88 11.82C20.88 13 20.72 14.14 20.4 15.24C20.1 16.32 19.65 17.33 19.05 18.27C18.47 19.19 17.75 20.01 16.89 20.73C16.03 21.45 15.05 22.01 13.95 22.41C12.49 22.23 11.15 21.79 9.93 21.09C8.71 20.39 7.66 19.51 6.78 18.45C5.9 17.39 5.21 16.19 4.71 14.85C4.23 13.51 3.99 12.11 3.99 10.65C3.99 9.37 4.19 8.21 4.59 7.17C5.01 6.13 5.59 5.24 6.33 4.5C7.09 3.76 7.99 3.19 9.03 2.79C10.07 2.39 11.22 2.19 12.48 2.19C13.82 2.19 15.01 2.46 16.05 3C17.09 3.52 17.97 4.22 18.69 5.1C19.41 5.98 19.95 7 20.31 8.16C20.69 9.32 20.88 10.54 20.88 11.82ZM44.1881 6.54L44.1581 6.03C43.2781 5.97 42.3981 5.93 41.5181 5.91C40.6381 5.89 39.7481 5.88 38.8481 5.88C38.5681 5.88 38.4481 5.98 38.4881 6.18C38.5281 6.4 38.6381 6.53 38.8181 6.57C39.0181 6.59 39.2281 6.61 39.4481 6.63C39.5681 6.65 39.6881 6.67 39.8081 6.69C39.9481 6.71 40.0681 6.76 40.1681 6.84C40.2681 6.9 40.3481 7 40.4081 7.14C40.4881 7.28 40.5281 7.47 40.5281 7.71C40.5281 8.49 40.5281 9.27 40.5281 10.05C40.5281 10.83 40.5381 11.6 40.5581 12.36C40.5781 13.14 40.5881 13.92 40.5881 14.7C40.5881 15.48 40.5881 16.25 40.5881 17.01C40.5881 17.73 40.4481 18.36 40.1681 18.9C39.8881 19.44 39.5081 19.9 39.0281 20.28C38.5681 20.64 38.0281 20.92 37.4081 21.12C36.8081 21.3 36.1881 21.39 35.5481 21.39C34.9081 21.39 34.2881 21.3 33.6881 21.12C33.1081 20.94 32.5881 20.67 32.1281 20.31C31.6681 19.95 31.2981 19.51 31.0181 18.99C30.7381 18.45 30.5981 17.83 30.5981 17.13C30.5981 16.35 30.5981 15.57 30.5981 14.79C30.6181 13.99 30.6281 13.19 30.6281 12.39V7.68C30.6281 7.24 30.7681 6.96 31.0481 6.84C31.3281 6.7 31.6681 6.61 32.0681 6.57C32.2481 6.55 32.3381 6.47 32.3381 6.33C32.3381 6.17 32.2481 6.08 32.0681 6.06C30.4081 5.94 28.7581 5.88 27.1181 5.88H26.1881C25.9081 5.88 25.7881 5.98 25.8281 6.18C25.8681 6.4 25.9681 6.52 26.1281 6.54C26.3081 6.56 26.5181 6.59 26.7581 6.63C26.9981 6.65 27.2381 6.71 27.4781 6.81C27.7381 6.91 27.8681 7.21 27.8681 7.71V16.59C27.8681 16.71 27.8781 16.85 27.8981 17.01C27.9381 17.17 27.9581 17.34 27.9581 17.52V17.49C27.9581 18.39 28.1981 19.17 28.6781 19.83C29.1781 20.49 29.7981 21.04 30.5381 21.48C31.2981 21.9 32.1181 22.22 32.9981 22.44C33.8981 22.64 34.7481 22.74 35.5481 22.74C36.5281 22.74 37.4581 22.58 38.3381 22.26C39.2181 21.94 39.9781 21.49 40.6181 20.91C41.2781 20.31 41.7981 19.6 42.1781 18.78C42.5581 17.94 42.7481 17.01 42.7481 15.99V7.68C42.7481 7.28 42.8981 7 43.1981 6.84C43.5181 6.68 43.8481 6.58 44.1881 6.54ZM61.6833 22.17V21.63C61.2433 21.59 60.8133 21.5 60.3933 21.36C59.9733 21.22 59.6433 20.92 59.4033 20.46C58.6433 19.08 57.9433 17.66 57.3033 16.2C56.6833 14.72 56.0633 13.26 55.4433 11.82L54.1233 8.73V8.76C54.0833 8.7 54.0433 8.62 54.0033 8.52C53.9633 8.4 53.9133 8.27 53.8533 8.13V8.16C53.7533 7.94 53.6433 7.69 53.5233 7.41C53.4033 7.13 53.2733 6.87 53.1333 6.63C52.9933 6.37 52.8533 6.14 52.7133 5.94C52.5733 5.74 52.4333 5.61 52.2933 5.55C52.0733 5.49 51.9233 5.53 51.8433 5.67C51.2433 7.07 50.6433 8.47 50.0433 9.87C49.4633 11.27 48.8833 12.68 48.3033 14.1C47.9033 15.06 47.4833 16.05 47.0433 17.07C46.6233 18.07 46.2133 19.05 45.8133 20.01C45.7133 20.19 45.5733 20.39 45.3933 20.61C45.2333 20.83 45.0533 21.03 44.8533 21.21C44.6533 21.37 44.4433 21.49 44.2233 21.57C44.0033 21.65 43.7933 21.66 43.5933 21.6L43.4733 22.14L48.7533 22.23C48.9533 22.23 49.0533 22.15 49.0533 21.99C49.0733 21.81 48.9833 21.71 48.7833 21.69C48.5833 21.65 48.3533 21.6 48.0933 21.54C47.8333 21.46 47.7033 21.31 47.7033 21.09C47.7033 20.91 47.7633 20.61 47.8833 20.19C48.0233 19.75 48.1933 19.28 48.3933 18.78C48.5933 18.28 48.7933 17.78 48.9933 17.28C49.1933 16.78 49.3733 16.37 49.5333 16.05H54.3633C54.7833 16.99 55.1833 17.89 55.5633 18.75C55.9433 19.61 56.3333 20.51 56.7333 21.45L56.4633 21.78C56.3433 21.88 56.3033 21.98 56.3433 22.08C56.4033 22.18 56.5133 22.23 56.6733 22.23C57.0333 22.25 57.3833 22.27 57.7233 22.29C58.0633 22.29 58.4133 22.29 58.7733 22.29C59.2733 22.29 59.7633 22.28 60.2433 22.26C60.7233 22.24 61.2033 22.21 61.6833 22.17ZM53.8233 14.76H50.0133C50.3933 13.86 50.7133 13.02 50.9733 12.24C51.2533 11.44 51.5633 10.6 51.9033 9.72L53.8233 14.76ZM69.9539 21.9C69.7939 21.76 69.6239 21.68 69.4439 21.66C69.2839 21.62 69.0939 21.6 68.8739 21.6C68.7739 21.6 68.6639 21.59 68.5439 21.57C68.4239 21.55 68.3339 21.53 68.2739 21.51C68.2339 21.45 68.1839 21.34 68.1239 21.18C68.0639 21.02 68.0139 20.85 67.9739 20.67C67.9339 20.49 67.8939 20.32 67.8539 20.16C67.8339 20 67.8239 19.88 67.8239 19.8V7.68C67.8239 7.2 67.9639 6.9 68.2439 6.78C68.5239 6.66 68.8639 6.57 69.2639 6.51C69.4439 6.47 69.5239 6.38 69.5039 6.24C69.5039 6.1 69.4139 6.02 69.2339 6C68.7739 5.96 68.3239 5.96 67.8839 6C67.4439 6.04 66.9939 6.06 66.5339 6.06C66.0739 6.06 65.6039 6.04 65.1239 6C64.6439 5.96 64.1639 5.96 63.6839 6C63.4839 6.02 63.3739 6.11 63.3539 6.27C63.3539 6.41 63.4539 6.49 63.6539 6.51C64.0139 6.55 64.3539 6.66 64.6739 6.84C65.0139 7 65.1839 7.28 65.1839 7.68V19.89C65.1839 20.05 65.1639 20.23 65.1239 20.43C65.1039 20.63 65.0639 20.83 65.0039 21.03C64.9439 21.23 64.8539 21.4 64.7339 21.54C64.6339 21.66 64.5039 21.72 64.3439 21.72C64.3039 21.72 64.2439 21.74 64.1639 21.78C64.1039 21.8 64.0239 21.79 63.9239 21.75C63.7439 21.71 63.6139 21.79 63.5339 21.99C63.4539 22.17 63.5039 22.29 63.6839 22.35C63.8239 22.41 64.0139 22.45 64.2539 22.47C64.5139 22.47 64.7739 22.46 65.0339 22.44C65.3139 22.42 65.5739 22.4 65.8139 22.38C66.0539 22.36 66.2539 22.35 66.4139 22.35L67.5539 22.38C67.9339 22.4 68.2939 22.4 68.6339 22.38C68.9939 22.36 69.3539 22.36 69.7139 22.38L69.9539 21.9ZM90.4005 13.92C90.4005 13.64 90.4005 13.36 90.4005 13.08C90.4005 12.78 90.3805 12.49 90.3405 12.21C90.2405 11.33 89.8505 10.5 89.1705 9.72C88.5105 8.94 87.7205 8.27 86.8005 7.71C85.8805 7.13 84.9105 6.68 83.8905 6.36C82.8705 6.02 81.9605 5.85 81.1605 5.85C80.7405 5.85 80.2805 5.86 79.7805 5.88C79.3005 5.9 78.8505 5.92 78.4305 5.94C77.5505 6 76.6805 6.03 75.8205 6.03C75.4805 6.03 75.1105 6.02 74.7105 6C74.3105 5.98 73.9305 5.96 73.5705 5.94C73.2905 5.92 73.0105 5.91 72.7305 5.91C72.4705 5.89 72.2005 5.88 71.9205 5.88C71.7805 5.88 71.6805 5.92 71.6205 6C71.5605 6.06 71.5505 6.14 71.5905 6.24C71.6505 6.36 71.7605 6.45 71.9205 6.51C72.1005 6.55 72.2805 6.59 72.4605 6.63C72.7005 6.67 72.9405 6.74 73.1805 6.84C73.4205 6.94 73.5405 7.19 73.5405 7.59V19.77C73.5405 20.45 73.4505 20.92 73.2705 21.18C73.1105 21.44 72.7305 21.62 72.1305 21.72C71.9305 21.76 71.8405 21.86 71.8605 22.02C71.8805 22.18 71.9905 22.26 72.1905 22.26C72.8105 22.24 73.4705 22.25 74.1705 22.29C74.8705 22.33 75.5405 22.37 76.1805 22.41C76.7605 22.45 77.3405 22.49 77.9205 22.53C78.5205 22.55 79.1105 22.56 79.6905 22.56C81.1105 22.56 82.4705 22.41 83.7705 22.11C85.0705 21.81 86.2105 21.32 87.1905 20.64C88.1705 19.96 88.9505 19.07 89.5305 17.97C90.1105 16.87 90.4005 15.52 90.4005 13.92ZM87.6705 14.76C87.6705 15.96 87.4505 16.98 87.0105 17.82C86.5705 18.64 85.9805 19.32 85.2405 19.86C84.5005 20.38 83.6405 20.76 82.6605 21C81.6805 21.24 80.6605 21.36 79.6005 21.36C79.1005 21.36 78.6505 21.34 78.2505 21.3C77.8505 21.26 77.5005 21.16 77.2005 21C76.9205 20.84 76.7005 20.6 76.5405 20.28C76.4005 19.96 76.3305 19.52 76.3305 18.96V7.38C76.7305 7.26 77.1305 7.18 77.5305 7.14C77.9305 7.1 78.3305 7.08 78.7305 7.08C79.9105 7.08 81.0405 7.24 82.1205 7.56C83.2005 7.88 84.1505 8.36 84.9705 9C85.7905 9.62 86.4405 10.42 86.9205 11.4C87.4205 12.36 87.6705 13.48 87.6705 14.76Z" fill="black"/>
</svg>
