<?xml version="1.0" encoding="UTF-8" standalone="no"?>
<!DOCTYPE svg PUBLIC "-//W3C//DTD SVG 1.1//EN" "http://www.w3.org/Graphics/SVG/1.1/DTD/svg11.dtd">
<svg width="100%" height="100%" viewBox="0 0 493 508" version="1.1" xmlns="http://www.w3.org/2000/svg" xmlns:xlink="http://www.w3.org/1999/xlink" xml:space="preserve" xmlns:serif="http://www.serif.com/" style="fill-rule:evenodd;clip-rule:evenodd;stroke-linejoin:round;stroke-miterlimit:2;">
    <g transform="matrix(1,0,0,1,-725,-749)">
        <g>
            <path d="M867.295,1212.34L1077.02,1212.34L1181.99,1002.4L1077.02,792.461L867.295,792.461L762.326,1002.4L867.295,1212.34ZM1078.12,1214.11L866.202,1214.11L760.348,1002.4L866.202,790.692L1078.12,790.692L1183.97,1002.4L1078.12,1214.11Z" style="fill:white;"/>
            <path d="M802.435,1172.12L1035.75,1235.71L1205.47,1065.99L1141.89,832.675L908.571,769.091L738.851,938.81L802.435,1172.12ZM1036.27,1237.68L1035.78,1237.55L800.995,1173.56L736.875,938.285L908.046,767.115L908.541,767.25L1143.33,831.235L1207.44,1066.51L1036.27,1237.68Z" style="fill:white;"/>
            <path d="M834.329,1122.52L972.16,1242.27L1109.99,1122.52L1109.99,882.28L972.16,762.525L834.329,882.28L834.329,1122.52ZM972.16,1244.62L971.58,1244.11L832.561,1123.33L832.561,881.474L832.865,881.209L972.16,760.183L1111.76,881.474L1111.76,1123.33L1111.45,1123.59L972.16,1244.62Z" style="fill:white;"/>
        </g>
    </g>
</svg>
