<?xml version="1.0" encoding="UTF-8" standalone="no"?>
<!DOCTYPE svg PUBLIC "-//W3C//DTD SVG 1.1//EN" "http://www.w3.org/Graphics/SVG/1.1/DTD/svg11.dtd">
<svg width="100%" height="100%" viewBox="0 0 1445 1445" version="1.1" xmlns="http://www.w3.org/2000/svg" xmlns:xlink="http://www.w3.org/1999/xlink" xml:space="preserve" xmlns:serif="http://www.serif.com/" style="fill-rule:evenodd;clip-rule:evenodd;stroke-linecap:round;stroke-linejoin:round;stroke-miterlimit:2;">
    <g transform="matrix(1,0,0,1,-9676,-2141)">
        <g transform="matrix(4.16667,0,0,4.16667,0,0)">
            <path d="M2600.88,694.447C2600.88,751.999 2554.24,798.627 2496.7,798.627C2439.16,798.627 2392.51,751.999 2392.51,694.447C2392.51,636.906 2439.16,590.259 2496.7,590.259C2554.24,590.259 2600.88,636.906 2600.88,694.447Z" style="fill:rgb(215,224,232);fill-rule:nonzero;"/>
            <path d="M2568.45,694.447C2568.45,734.076 2536.33,766.188 2496.7,766.188C2457.07,766.188 2424.96,734.076 2424.96,694.447C2424.96,654.823 2457.07,622.698 2496.7,622.698C2536.33,622.698 2568.45,654.823 2568.45,694.447Z" style="fill:white;fill-rule:nonzero;"/>
            <path d="M2536.67,694.447C2536.67,716.523 2518.77,734.413 2496.7,734.413C2474.62,734.413 2456.73,716.523 2456.73,694.447C2456.73,672.37 2474.62,654.471 2496.7,654.471C2518.77,654.471 2536.67,672.37 2536.67,694.447Z" style="fill:rgb(241,173,171);fill-rule:nonzero;"/>
            <path d="M2632.84,583.069L2496.7,692.792" style="fill:none;stroke:rgb(78,123,159);stroke-width:14.54px;"/>
            <path d="M2469.93,797.288C2424.24,785.426 2390.5,743.899 2390.5,694.49C2390.5,635.826 2438.05,588.296 2496.7,588.296C2555.35,588.296 2602.9,635.826 2602.9,694.49C2602.9,737.797 2576.99,775.039 2539.83,791.558" style="fill:none;stroke:rgb(78,123,159);stroke-width:14.54px;"/>
            <path d="M2553.08,784.463C2578.28,797.313 2598.5,818.507 2610.14,844.386" style="fill:none;stroke:rgb(78,123,159);stroke-width:14.54px;"/>
            <path d="M2385.41,839.85C2397.3,816.026 2416.62,796.544 2440.34,784.463" style="fill:none;stroke:rgb(78,123,159);stroke-width:14.54px;"/>
            <path d="M2497.77,525.392L2497.77,553.715" style="fill:none;stroke:rgb(78,123,159);stroke-width:14.54px;"/>
            <path d="M2576.09,538.637L2562.29,566.356" style="fill:none;stroke:rgb(78,123,159);stroke-width:14.54px;"/>
            <path d="M2360.79,583.069L2385.41,601.837" style="fill:none;stroke:rgb(78,123,159);stroke-width:14.54px;"/>
            <path d="M2419.46,538.637L2433.26,566.356" style="fill:none;stroke:rgb(78,123,159);stroke-width:14.54px;"/>
            <path d="M2553.93,646.657C2568.96,664.679 2575.26,689.49 2568.68,713.854C2557.96,753.61 2517.03,777.149 2477.29,766.422C2437.53,755.696 2414,714.771 2424.72,675.023C2435.45,635.271 2476.37,611.737 2516.12,622.464" style="fill:none;stroke:rgb(78,123,159);stroke-width:14.54px;"/>
            <path d="M2527.96,669.543C2535.59,679.134 2538.72,692.107 2535.28,704.852C2529.54,726.157 2507.6,738.779 2486.29,733.026C2464.98,727.274 2452.37,705.34 2458.12,684.034C2463.87,662.729 2485.8,650.114 2507.11,655.86" style="fill:none;stroke:rgb(78,123,159);stroke-width:14.54px;"/>
            <path d="M2620.8,565.207L2624.2,589.034L2647.01,596.672L2617.28,621.449L2594.46,613.817L2591.06,589.987L2620.8,565.207Z" style="fill:none;stroke:rgb(78,123,159);stroke-width:14.54px;"/>
        </g>
    </g>
</svg>
