<?xml version="1.0" encoding="UTF-8" standalone="no"?>
<!DOCTYPE svg PUBLIC "-//W3C//DTD SVG 1.1//EN" "http://www.w3.org/Graphics/SVG/1.1/DTD/svg11.dtd">
<svg width="100%" height="100%" viewBox="0 0 1445 1445" version="1.1" xmlns="http://www.w3.org/2000/svg" xmlns:xlink="http://www.w3.org/1999/xlink" xml:space="preserve" xmlns:serif="http://www.serif.com/" style="fill-rule:evenodd;clip-rule:evenodd;stroke-linecap:round;stroke-linejoin:round;stroke-miterlimit:2;">
    <g transform="matrix(1,0,0,1,-9703,-9778)">
        <g transform="matrix(4.16667,0,0,4.16667,0,0)">
            <path d="M2432.88,2531.35L2432.88,2456.93L2353.38,2456.93C2348.16,2456.93 2343.9,2461.18 2343.9,2466.41L2343.9,2588.6C2343.9,2593.83 2348.16,2598.08 2353.38,2598.08L2396.82,2598.08C2397.67,2598.08 2398.49,2598.43 2399.09,2599.04C2399.68,2599.66 2400,2600.48 2399.98,2601.34L2399.04,2632.63L2460.55,2598.47C2461.02,2598.22 2461.54,2598.08 2462.08,2598.08L2540.88,2598.08C2546.1,2598.08 2550.36,2593.83 2550.36,2588.6L2550.36,2545.39L2446.91,2545.39C2439.16,2545.39 2432.88,2539.1 2432.88,2531.35Z" style="fill:white;fill-rule:nonzero;"/>
            <path d="M2468.4,2527.51C2459.68,2527.51 2452.6,2520.42 2452.6,2511.71L2452.6,2456.93L2426.56,2456.93L2426.56,2537.67C2426.56,2545.42 2439.16,2558.03 2446.91,2558.03L2550.36,2558.03L2550.36,2527.51L2468.4,2527.51Z" style="fill:rgb(215,224,232);fill-rule:nonzero;"/>
            <path d="M2654.42,2365.29L2468.4,2365.29C2463.17,2365.29 2458.92,2369.54 2458.92,2374.77L2458.92,2511.71C2458.92,2516.94 2463.17,2521.19 2468.4,2521.19L2573.38,2521.19C2574.03,2521.19 2574.66,2521.39 2575.2,2521.77L2623.24,2555.64L2623.24,2524.35C2623.24,2522.6 2624.66,2521.19 2626.4,2521.19L2654.42,2521.19C2659.65,2521.19 2663.9,2516.94 2663.9,2511.71L2663.9,2374.77C2663.9,2369.54 2659.65,2365.29 2654.42,2365.29Z" style="fill:rgb(177,212,233);fill-rule:nonzero;"/>
            <path d="M2455.76,2512.67C2455.76,2519.65 2461.42,2525.31 2468.4,2525.31L2573.38,2525.31L2626.4,2562.69L2626.4,2525.31L2654.42,2525.31C2661.4,2525.31 2667.06,2519.65 2667.06,2512.67L2667.06,2375.73C2667.06,2368.75 2661.4,2363.1 2654.42,2363.1L2468.4,2363.1C2461.42,2363.1 2455.76,2368.75 2455.76,2375.73L2455.76,2512.67Z" style="fill:none;stroke:rgb(78,123,159);stroke-width:14.54px;"/>
            <path d="M2553.52,2525.31L2553.52,2589.57C2553.52,2596.55 2547.85,2602.21 2540.88,2602.21L2462.08,2602.21L2395.72,2639.06L2396.82,2602.21L2353.38,2602.21C2346.4,2602.21 2340.74,2596.55 2340.74,2589.57L2340.74,2467.37C2340.74,2460.39 2346.4,2454.73 2353.38,2454.73L2455.76,2454.73" style="fill:none;stroke:rgb(78,123,159);stroke-width:14.54px;"/>
            <path d="M2516.85,2445.25C2516.85,2449.17 2513.66,2452.36 2509.74,2452.36C2505.81,2452.36 2502.63,2449.17 2502.63,2445.25C2502.63,2441.32 2505.81,2438.14 2509.74,2438.14C2513.66,2438.14 2516.85,2441.32 2516.85,2445.25Z" style="fill:none;stroke:white;stroke-width:14.54px;"/>
            <path d="M2571.68,2445.25C2571.68,2449.17 2568.49,2452.36 2564.57,2452.36C2560.64,2452.36 2557.46,2449.17 2557.46,2445.25C2557.46,2441.32 2560.64,2438.14 2564.57,2438.14C2568.49,2438.14 2571.68,2441.32 2571.68,2445.25Z" style="fill:none;stroke:white;stroke-width:14.54px;"/>
            <path d="M2626.51,2445.25C2626.51,2449.17 2623.32,2452.36 2619.4,2452.36C2615.47,2452.36 2612.29,2449.17 2612.29,2445.25C2612.29,2441.32 2615.47,2438.14 2619.4,2438.14C2623.32,2438.14 2626.51,2441.32 2626.51,2445.25Z" style="fill:none;stroke:white;stroke-width:14.54px;"/>
        </g>
    </g>
</svg>
