<?xml version="1.0" encoding="UTF-8" standalone="no"?>
<!DOCTYPE svg PUBLIC "-//W3C//DTD SVG 1.1//EN" "http://www.w3.org/Graphics/SVG/1.1/DTD/svg11.dtd">
<svg width="100%" height="100%" viewBox="0 0 1445 1445" version="1.1" xmlns="http://www.w3.org/2000/svg" xmlns:xlink="http://www.w3.org/1999/xlink" xml:space="preserve" xmlns:serif="http://www.serif.com/" style="fill-rule:evenodd;clip-rule:evenodd;stroke-linecap:round;stroke-linejoin:round;stroke-miterlimit:2;">
    <g transform="matrix(1,0,0,1,-11556,-7818)">
        <g transform="matrix(4.16667,0,0,4.16667,0,0)">
            <path d="M2886.01,1998.19L2886.01,1948.16C2886.01,1927.25 2906.17,1910.29 2931.04,1910.29L2932.31,1910.29C2957.17,1910.29 2977.32,1927.25 2977.32,1948.16L2977.32,1998.25L3003.39,2004.1L3003.39,1942.38C3003.39,1909.52 2971.73,1882.87 2932.67,1882.87L2930.67,1882.87C2891.6,1882.87 2859.94,1909.52 2859.94,1942.38L2859.94,2003.89" style="fill:rgb(215,224,232);fill-rule:nonzero;"/>
            <path d="M2981.86,2001.67L2881.43,2001.67C2851.39,2001.67 2826.82,2026.26 2826.82,2056.29L2826.82,2156.72C2826.82,2186.76 2851.39,2211.33 2881.43,2211.33L2981.86,2211.33C3011.89,2211.33 3036.48,2186.76 3036.48,2156.72L3036.48,2056.29C3036.48,2026.26 3011.89,2001.67 2981.86,2001.67Z" style="fill:rgb(241,173,171);fill-rule:nonzero;"/>
            <path d="M3003.06,2106.42C3003.06,2145.85 2971.1,2177.82 2931.66,2177.82C2892.23,2177.82 2860.27,2145.85 2860.27,2106.42C2860.27,2067 2892.23,2035.03 2931.66,2035.03C2971.1,2035.03 3003.06,2067 3003.06,2106.42Z" style="fill:rgb(215,193,183);fill-rule:nonzero;"/>
            <path d="M2981.86,2001.86L2881.43,2001.86C2851.39,2001.86 2826.82,2026.45 2826.82,2056.48L2826.82,2156.91C2826.82,2186.95 2851.39,2211.52 2881.43,2211.52L2981.86,2211.52C3011.89,2211.52 3036.48,2186.95 3036.48,2156.91L3036.48,2056.48C3036.48,2026.45 3011.89,2001.86 2981.86,2001.86Z" style="fill:none;stroke:rgb(78,123,159);stroke-width:14.54px;"/>
            <path d="M2859.93,2003.89L2859.93,1942.38C2859.93,1909.52 2891.59,1882.87 2930.66,1882.87L2932.66,1882.87C2971.71,1882.87 3003.38,1909.52 3003.38,1942.38L3003.38,2004.3" style="fill:none;stroke:rgb(78,123,159);stroke-width:14.54px;"/>
            <path d="M2985.88,2060.23C2996.58,2072.72 3003.05,2088.95 3003.05,2106.69C3003.05,2146.13 2971.08,2178.09 2931.66,2178.09C2892.23,2178.09 2860.26,2146.13 2860.26,2106.69C2860.26,2067.26 2892.23,2035.29 2931.66,2035.29C2938.93,2035.29 2945.96,2036.38 2952.58,2038.4" style="fill:none;stroke:rgb(78,123,159);stroke-width:14.54px;"/>
            <path d="M2886,1998.19L2886,1948.16C2886,1927.25 2906.16,1910.29 2931.02,1910.29L2932.29,1910.29C2957.15,1910.29 2977.31,1927.25 2977.31,1948.16L2977.31,1998.44" style="fill:none;stroke:rgb(78,123,159);stroke-width:14.54px;"/>
            <path d="M2931.65,2132.41L2931.65,2088.89" style="fill:none;stroke:white;stroke-width:14.54px;"/>
            <path d="M2937.38,2085.7C2937.38,2082.53 2934.82,2079.97 2931.65,2079.97C2928.49,2079.97 2925.92,2082.53 2925.92,2085.7C2925.92,2088.86 2928.49,2091.42 2931.65,2091.42C2934.82,2091.42 2937.38,2088.86 2937.38,2085.7Z" style="fill:none;stroke:white;stroke-width:14.54px;"/>
            <path d="M3045.77,1988.56C3045.26,1989.55 3063.15,1996.24 3067.89,2017" style="fill:none;stroke:rgb(78,123,159);stroke-width:14.54px;"/>
            <path d="M3046.32,1956.22C3067.48,1959.55 3082.44,1971.19 3089.46,1991.19" style="fill:none;stroke:rgb(78,123,159);stroke-width:14.54px;"/>
        </g>
    </g>
</svg>
