<?xml version="1.0" encoding="UTF-8" standalone="no"?>
<!DOCTYPE svg PUBLIC "-//W3C//DTD SVG 1.1//EN" "http://www.w3.org/Graphics/SVG/1.1/DTD/svg11.dtd">
<svg width="100%" height="100%" viewBox="0 0 163 163" version="1.1" xmlns="http://www.w3.org/2000/svg" xmlns:xlink="http://www.w3.org/1999/xlink" xml:space="preserve" xmlns:serif="http://www.serif.com/" style="fill-rule:evenodd;clip-rule:evenodd;stroke-linejoin:round;stroke-miterlimit:2;">
    <g transform="matrix(1,0,0,1,-4145,-3343)">
        <g transform="matrix(4.16667,0,0,4.16667,0,0)">
            <path d="M996.602,826.571C996.836,823.001 998.472,820.763 999.218,819.918C1002.69,822.34 1006.23,820.657 1007.5,819.892C1008.18,820.624 1008.67,821.484 1009.03,822.353C1008.37,823.169 1007.45,824.572 1006.88,826.569L996.602,826.571ZM1010.32,822.883C1013.79,825.304 1017.33,823.622 1018.6,822.857C1020.58,824.976 1020.96,828.178 1021.03,829.533L1007.7,829.535C1007.94,825.965 1009.57,823.728 1010.32,822.883ZM1021.54,819.918C1025.01,822.34 1028.55,820.657 1029.82,819.892C1031.8,822.011 1032.18,825.213 1032.25,826.568L1021.93,826.57C1021.6,825.213 1021,823.691 1019.96,822.398C1020.51,821.194 1021.15,820.362 1021.54,819.918ZM1006.35,830.189C1006.35,830.367 1006.42,830.539 1006.54,830.665C1006.66,830.792 1006.84,830.862 1007.01,830.862L1021.7,830.859C1022.06,830.859 1022.35,830.576 1022.37,830.218C1022.37,830.126 1022.39,829.187 1022.2,827.897L1032.93,827.895C1033.28,827.895 1033.58,827.611 1033.59,827.253C1033.6,827.026 1033.73,821.645 1030.36,818.555C1030.12,818.336 1029.76,818.321 1029.51,818.518C1029.47,818.548 1025.54,821.495 1021.89,818.521C1021.64,818.317 1021.28,818.323 1021.04,818.535C1020.96,818.603 1019.89,819.557 1018.95,821.401C1018.74,821.308 1018.48,821.333 1018.29,821.481C1018.13,821.604 1014.31,824.445 1010.67,821.485C1010.49,821.341 1010.26,821.304 1010.05,821.37C1009.58,820.362 1008.94,819.377 1008.04,818.555C1007.8,818.336 1007.44,818.321 1007.19,818.518C1007.15,818.548 1003.22,821.495 999.57,818.521C999.319,818.317 998.958,818.323 998.715,818.535C998.577,818.655 995.33,821.542 995.249,827.225C995.246,827.402 995.315,827.574 995.439,827.7C995.564,827.827 995.734,827.898 995.912,827.898L1006.57,827.896C1006.45,828.604 1006.36,829.363 1006.35,830.189Z" style="fill:rgb(108,80,75);fill-rule:nonzero;"/>
            <path d="M1003.26,806.75C1005.99,806.75 1008.21,808.972 1008.21,811.703C1008.21,813.023 1007.7,814.268 1006.76,815.205C1005.82,816.143 1004.58,816.658 1003.26,816.658C1000.53,816.658 998.304,814.437 998.303,811.707C998.303,810.385 998.819,809.141 999.755,808.204C1000.69,807.266 1001.94,806.75 1003.26,806.75ZM1010.86,811.168C1011.79,810.23 1013.04,809.714 1014.36,809.714C1017.09,809.714 1019.31,811.937 1019.31,814.667C1019.31,815.988 1018.8,817.232 1017.86,818.17C1016.92,819.107 1015.68,819.623 1014.36,819.623C1011.63,819.623 1009.4,817.401 1009.4,814.671C1009.4,813.35 1009.92,812.105 1010.86,811.168ZM1022.08,808.204C1023.01,807.266 1024.26,806.75 1025.58,806.75C1028.31,806.75 1030.53,808.972 1030.53,811.703C1030.53,813.023 1030.02,814.268 1029.08,815.205C1028.15,816.143 1026.9,816.658 1025.58,816.658C1022.85,816.658 1020.63,814.437 1020.62,811.707C1020.62,810.385 1021.14,809.141 1022.08,808.204ZM996.976,811.707C996.977,815.169 999.795,817.985 1003.26,817.985C1004.94,817.985 1006.51,817.331 1007.7,816.143C1007.86,815.979 1008.01,815.806 1008.16,815.627C1008.62,818.636 1011.22,820.95 1014.36,820.95C1016.04,820.95 1017.61,820.296 1018.8,819.108C1019.79,818.117 1020.4,816.855 1020.58,815.492C1021.73,817.003 1023.54,817.985 1025.58,817.985C1027.26,817.985 1028.83,817.331 1030.02,816.143C1031.21,814.955 1031.86,813.378 1031.86,811.703C1031.86,808.24 1029.04,805.423 1025.58,805.423C1023.9,805.423 1022.33,806.078 1021.14,807.266C1020.15,808.256 1019.54,809.519 1019.36,810.881C1018.21,809.37 1016.4,808.387 1014.36,808.387C1012.68,808.388 1011.11,809.042 1009.92,810.23C1009.75,810.395 1009.6,810.567 1009.46,810.746C1008.99,807.737 1006.39,805.423 1003.26,805.423C1001.58,805.423 1000,806.078 998.817,807.266C997.629,808.454 996.976,810.031 996.976,811.707Z" style="fill:rgb(108,80,75);fill-rule:nonzero;"/>
        </g>
    </g>
</svg>
