<?xml version="1.0" encoding="utf-8"?>
<!-- Generator: Adobe Illustrator 22.1.0, SVG Export Plug-In . SVG Version: 6.00 Build 0)  -->
<svg version="1.1" id="Layer_1" xmlns:serif="http://www.serif.com/"
	 xmlns="http://www.w3.org/2000/svg" xmlns:xlink="http://www.w3.org/1999/xlink" x="0px" y="0px" viewBox="0 0 595.3 841.9"
	 style="enable-background:new 0 0 595.3 841.9;" xml:space="preserve">
<style type="text/css">
	.st0{fill:#FFFFFF;}
	.st1{clip-path:url(#SVGID_2_);}
	.st2{fill:#EFEFF0;}
</style>
<g transform="matrix(4.16667,0,0,4.16667,0,0)">
	<path class="st0" d="M43.1,130.1L43,130l2.4-2.4l0.2,0.2L43.1,130.1z"/>
	<path class="st0" d="M45.5,130.1l-0.2-0.2l2.4-2.4l0.2,0.2L45.5,130.1z"/>
	<path class="st0" d="M47.9,130.1l-0.2-0.2l2.4-2.4l0.2,0.2L47.9,130.1z"/>
	<path class="st0" d="M50.3,130.1l-0.2-0.2l2.4-2.4l0.2,0.2L50.3,130.1z"/>
	<path class="st0" d="M52.7,130.1l-0.2-0.2l2.4-2.4l0.2,0.2L52.7,130.1z"/>
	<path class="st0" d="M84.6,115.8l-0.2-0.2l2.4-2.4l0.2,0.2L84.6,115.8z"/>
	<path class="st0" d="M87,115.8l-0.2-0.2l2.4-2.4l0.2,0.2L87,115.8z"/>
	<path class="st0" d="M89.3,115.8l-0.2-0.2l2.4-2.4l0.2,0.2L89.3,115.8z"/>
	<path class="st0" d="M91.7,115.8l-0.2-0.2l2.4-2.4l0.2,0.2L91.7,115.8z"/>
	<path class="st0" d="M94.1,115.8l-0.2-0.2l2.4-2.4l0.2,0.2L94.1,115.8z"/>
	<path class="st0" d="M106.2,96.6l-0.2-0.2l48.3-48.3l0.2,0.2L106.2,96.6z"/>
	<path class="st0" d="M120.3,88.1l-0.2-0.2l48.3-48.3l0.2,0.2L120.3,88.1z"/>
	<path class="st0" d="M52.4,172.1l-0.2-0.2l48.3-48.3l0.2,0.2L52.4,172.1z"/>
	<path class="st0" d="M66.5,163.6l-0.2-0.2l48.3-48.3l0.2,0.2L66.5,163.6z"/>
	<path class="st0" d="M5,86.2L4.8,86l48.3-48.3l0.2,0.2L5,86.2z"/>
	<path class="st0" d="M19.2,77.6L19,77.4l48.3-48.3l0.2,0.2L19.2,77.6z"/>
	<path class="st0" d="M-27.9,164.4l-0.2-0.2L20.2,116l0.2,0.2L-27.9,164.4z"/>
	<path class="st0" d="M-13.7,155.8l-0.2-0.2l48.3-48.3l0.2,0.2L-13.7,155.8z"/>
	<g>
		<g>
			<g>
				<defs>
					<rect id="SVGID_1_" x="-6.3" y="77" width="13.3" height="23.8"/>
				</defs>
				<clipPath id="SVGID_2_">
					<use xlink:href="#SVGID_1_"  style="overflow:visible;"/>
				</clipPath>
				<g class="st1">
					<path class="st2" d="M0,89.6v-0.7l0.4-0.7c0.1,0,0.2,0,0.4,0.1L0,89.6z"/>
				</g>
			</g>
		</g>
		<path class="st2" d="M0,91.2v-0.7l1.2-2.1c0.1,0,0.2,0.1,0.3,0.1L0,91.2z"/>
		<path class="st2" d="M0,92.8v-0.7l2-3.5c0.1,0,0.2,0.1,0.3,0.1L0,92.8z"/>
		<path class="st2" d="M0,94.4v-0.7l2.8-4.9c0.1,0,0.2,0.1,0.3,0.1L0,94.4z"/>
		<path class="st2" d="M0,96.1v-0.7l3.6-6.2c0.1,0,0.2,0.1,0.3,0.2L0,96.1z"/>
		<path class="st2" d="M0,97.7V97l4.3-7.4c0.1,0.1,0.2,0.1,0.3,0.2L0,97.7z"/>
		<path class="st2" d="M0,99.3v-0.7L5,90c0.1,0.1,0.2,0.1,0.3,0.2L0,99.3z"/>
		<path class="st2" d="M0,101v-0.7l5.7-9.8c0.1,0.1,0.2,0.1,0.3,0.2L0,101z"/>
		<path class="st2" d="M0,102.6v-0.7L6.3,91c0.1,0.1,0.2,0.2,0.3,0.2L0,102.6z"/>
		<path class="st2" d="M0,104.2v-0.7l6.9-12c0.1,0.1,0.2,0.2,0.3,0.3L0,104.2z"/>
		<path class="st2" d="M0,105.8v-0.7l7.5-13c0.1,0.1,0.2,0.2,0.2,0.3L0,105.8z"/>
		<path class="st2" d="M0,107.5v-0.7l8.1-14c0.1,0.1,0.2,0.2,0.2,0.3L0,107.5z"/>
		<path class="st2" d="M0,109.1v-0.7l8.6-14.9c0.1,0.1,0.1,0.2,0.2,0.3L0,109.1z"/>
		<path class="st2" d="M0,110.7V110l9.1-15.7c0.1,0.1,0.1,0.2,0.2,0.4L0,110.7z"/>
		<path class="st2" d="M0,112.4v-0.7l9.5-16.5c0.1,0.1,0.1,0.3,0.2,0.4L0,112.4z"/>
		<path class="st2" d="M0.5,112.4l9.4-16.2c0.1,0.1,0.1,0.3,0.1,0.4l-9,15.7C0.8,112.3,0.7,112.3,0.5,112.4z"/>
		<path class="st2" d="M1.6,112.1l8.6-14.9c0,0.2,0.1,0.3,0.1,0.5L2.1,112C1.9,112,1.8,112.1,1.6,112.1z"/>
		<path class="st2" d="M2.8,111.7l7.7-13.3c0,0.2,0.1,0.4,0.1,0.6l-7.2,12.5C3.1,111.6,3,111.7,2.8,111.7z"/>
		<path class="st2" d="M4.1,111.1l6.5-11.3c0,0.1,0,0.3,0,0.4s0,0.2,0,0.2l-5.9,10.3C4.5,110.9,4.3,111,4.1,111.1z"/>
		<path class="st2" d="M5.5,110.2l5-8.6c0,0.3-0.1,0.6-0.1,0.9l-4.1,7.1C6,109.8,5.8,110,5.5,110.2z"/>
		<path class="st2" d="M7.5,108.4l2.4-4.2C9.4,105.8,8.6,107.2,7.5,108.4z"/>
		<path class="st2" d="M115.9,136.7h-6.4c-1.4-3.7-3.8-6.9-7-9.2l4.3-4.3C111.2,126.6,114.4,131.3,115.9,136.7z M72.5,136.7h-6.4
			c3-10.9,13-18.9,24.9-18.9c5.9,0,11.3,2,15.6,5.3l-4.3,4.3c-1.1-0.7-2.2-1.4-3.4-1.9l1.7-1.7l-0.2-0.2l-1.7,1.7
			c-2.4-1-5-1.6-7.7-1.6C82.5,123.9,75.3,129.2,72.5,136.7z"/>
		<path class="st2" d="M106.5,136.7H102c-1.1-1.8-2.6-3.2-4.4-4.3l2.9-2.9C103.1,131.3,105.2,133.8,106.5,136.7z M80,136.7h-4.5
			c2.6-6,8.6-10.1,15.5-10.1c2,0,3.8,0.3,5.6,0.9l-3.3,3.3c-0.8-0.1-1.5-0.2-2.3-0.2C86.4,130.6,82.3,133.1,80,136.7z M97.4,132.3
			c-1.2-0.7-2.5-1.2-3.8-1.4l3.2-3.2c1.2,0.5,2.4,1,3.5,1.8L97.4,132.3z"/>
		<path class="st2" d="M138.4,120.3c-8.8,0-15.9-7.1-15.9-15.9s7.1-15.9,15.9-15.9c1.6,0,3,0.2,4.5,0.6V93c-1.4-0.5-2.9-0.8-4.5-0.8
			c-6.7,0-12.2,5.4-12.2,12.2s5.4,12.2,12.2,12.2c1.6,0,3.1-0.3,4.5-0.8v3.9C141.4,120.1,140,120.3,138.4,120.3z"/>
		<path class="st2" d="M138.4,114.9c-5.4,0-9.9-4.2-10.4-9.5l0.6,0.6l1.8-1.8c0,0.1,0,0.1,0,0.2c0,4.4,3.6,8,8,8
			c1.7,0,3.2-0.5,4.5-1.4v2.8C141.5,114.5,140,114.9,138.4,114.9z M128.6,105.7L128,105c0-0.2,0-0.4,0-0.6c0-0.8,0.1-1.6,0.3-2.3
			l0.4-0.4l1.8,1.8c0,0.1,0,0.3,0,0.4L128.6,105.7z M130.5,103.2l-1.9-1.9l-0.3,0.3c1.2-4.4,5.3-7.7,10.1-7.7c1.6,0,3.1,0.4,4.5,1
			v2.8c-1.3-0.9-2.8-1.4-4.5-1.4C134.4,96.4,131.1,99.4,130.5,103.2z"/>
	</g>
	<path class="st0" d="M115.6,124l6.9,6.9l6.9-6.9l-6.9-6.9L115.6,124z M122.5,131.3l-7.3-7.3l7.3-7.3l7.3,7.3L122.5,131.3z"/>
	<path class="st0" d="M30.2,86.2l7.2,7.2l7.2-7.2L37.3,79L30.2,86.2z M37.3,93.7l-7.5-7.5l7.5-7.5l7.5,7.5L37.3,93.7z"/>
	<path class="st0" d="M28.3,123l3,3l3-3l-3-3L28.3,123z M31.3,126.4l-3.3-3.3l3.3-3.3l3.3,3.3L31.3,126.4z"/>
	<path class="st0" d="M111.7,76.5l3,3l3-3l-3-3L111.7,76.5z M114.7,79.8l-3.3-3.3l3.3-3.3l3.3,3.3L114.7,79.8z"/>
	<path class="st0" d="M126.6,103.7l2,2l2-2l-2-2L126.6,103.7z M128.6,106l-2.3-2.3l2.3-2.3l2.3,2.3L128.6,106z"/>
	<path class="st0" d="M48.1,107.1l2,2l2-2l-2-2L48.1,107.1z M50.1,109.5l-2.3-2.3l2.3-2.3l2.3,2.3L50.1,109.5z"/>
	<path class="st0" d="M71.4,65.3c0.1,0,0.2,0.1,0.2,0.2s-0.1,0.2-0.2,0.2s-0.2-0.1-0.2-0.2C71.2,65.4,71.3,65.3,71.4,65.3z
		 M71.4,67.7c0.1,0,0.2,0.1,0.2,0.2s-0.1,0.2-0.2,0.2s-0.2-0.1-0.2-0.2C71.2,67.8,71.3,67.7,71.4,67.7z M71.4,70.1
		c0.1,0,0.2,0.1,0.2,0.2s-0.1,0.2-0.2,0.2s-0.2-0.1-0.2-0.2C71.2,70.2,71.3,70.1,71.4,70.1z M71.4,72.5c0.1,0,0.2,0.1,0.2,0.2
		s-0.1,0.2-0.2,0.2s-0.2-0.1-0.2-0.2C71.2,72.6,71.3,72.5,71.4,72.5z M71.4,74.9c0.1,0,0.2,0.1,0.2,0.2s-0.1,0.2-0.2,0.2
		s-0.2-0.1-0.2-0.2C71.2,75,71.3,74.9,71.4,74.9z M71.4,77.3c0.1,0,0.2,0.1,0.2,0.2s-0.1,0.2-0.2,0.2s-0.2-0.1-0.2-0.2
		C71.2,77.4,71.3,77.3,71.4,77.3z M71.4,79.7c0.1,0,0.2,0.1,0.2,0.2s-0.1,0.2-0.2,0.2s-0.2-0.1-0.2-0.2
		C71.2,79.8,71.3,79.7,71.4,79.7z M71.4,82.1c0.1,0,0.2,0.1,0.2,0.2s-0.1,0.2-0.2,0.2s-0.2-0.1-0.2-0.2
		C71.2,82.2,71.3,82.1,71.4,82.1z M71.4,84.5c0.1,0,0.2,0.1,0.2,0.2s-0.1,0.2-0.2,0.2s-0.2-0.1-0.2-0.2
		C71.2,84.6,71.3,84.5,71.4,84.5z M71.4,86.9c0.1,0,0.2,0.1,0.2,0.2s-0.1,0.2-0.2,0.2s-0.2-0.1-0.2-0.2C71.2,87,71.3,86.9,71.4,86.9
		z M71.4,89.3c0.1,0,0.2,0.1,0.2,0.2s-0.1,0.2-0.2,0.2s-0.2-0.1-0.2-0.2C71.2,89.4,71.3,89.3,71.4,89.3z"/>
	<path class="st0" d="M99,125.5c-0.1,0-0.2-0.1-0.2-0.1l1.7-1.7l0.2,0.2L99,125.5z"/>
	<path class="st0" d="M102.5,127.6c-0.1,0-0.1-0.1-0.2-0.1l4.3-4.3c0.1,0,0.1,0.1,0.2,0.1L102.5,127.6z"/>
	<path class="st0" d="M93.6,130.9c-0.1,0-0.2,0-0.3-0.1l3.3-3.3c0.1,0,0.2,0.1,0.2,0.1L93.6,130.9z"/>
	<path class="st0" d="M97.7,132.4c-0.1,0-0.1-0.1-0.2-0.1l2.9-2.9c0.1,0,0.1,0.1,0.2,0.1L97.7,132.4z"/>
	<path class="st0" d="M128.6,106l-0.6-0.6c0-0.1,0-0.2,0-0.4l0.7,0.7l1.8-1.8c0,0.1,0,0.2,0,0.4L128.6,106z M130.5,103.5l-1.8-1.8
		l-0.4,0.4c0-0.2,0.1-0.3,0.1-0.4l0.3-0.3l1.9,1.9C130.5,103.3,130.5,103.4,130.5,103.5z"/>
</g>
</svg>
