<?xml version="1.0" encoding="UTF-8" standalone="no"?>
<!DOCTYPE svg PUBLIC "-//W3C//DTD SVG 1.1//EN" "http://www.w3.org/Graphics/SVG/1.1/DTD/svg11.dtd">
<svg width="100%" height="100%" viewBox="0 0 1445 1445" version="1.1" xmlns="http://www.w3.org/2000/svg" xmlns:xlink="http://www.w3.org/1999/xlink" xml:space="preserve" xmlns:serif="http://www.serif.com/" style="fill-rule:evenodd;clip-rule:evenodd;stroke-linecap:round;stroke-linejoin:round;stroke-miterlimit:2;">
    <g transform="matrix(1,0,0,1,-9733,-7848)">
        <g transform="matrix(4.16667,0,0,4.16667,0,0)">
            <path d="M2540.43,2167.61C2542.78,2143.34 2554.11,2133.16 2572.31,2116.6L2573.5,2115.54C2574.28,2114.86 2575.06,2114.18 2575.8,2113.53C2597.44,2093.72 2610,2065.33 2610,2035.82C2610,1977.69 2562.67,1930.37 2504.5,1930.35C2446.35,1930.37 2399.05,1977.69 2399.05,2035.82C2399.05,2065.39 2411.58,2093.77 2433.41,2113.76C2434.27,2114.44 2435.44,2115.45 2436.61,2116.49C2454.9,2133.19 2466.24,2143.37 2468.58,2167.61L2538.68,2195.22L2540.43,2167.61Z" style="fill:white;fill-rule:nonzero;"/>
            <path d="M2537.45,2169.98C2539.59,2147.81 2549.95,2138.51 2566.57,2123.37L2567.67,2122.4C2568.38,2121.78 2569.09,2121.16 2569.77,2120.57C2589.54,2102.46 2601.02,2076.52 2601.02,2049.56C2601.02,1996.43 2557.76,1953.18 2504.61,1953.16C2451.47,1953.18 2408.24,1996.43 2408.24,2049.56C2408.24,2076.57 2419.69,2102.51 2439.64,2120.77C2440.42,2121.4 2441.49,2122.32 2442.57,2123.27C2459.28,2138.54 2469.64,2147.84 2471.77,2169.98L2535.85,2195.22L2537.45,2169.98Z" style="fill:rgb(241,173,171);fill-rule:nonzero;"/>
            <path d="M2540.54,2167.61C2542.88,2143.34 2554.22,2133.16 2572.41,2116.6L2573.61,2115.54C2574.39,2114.86 2575.16,2114.18 2575.9,2113.53C2597.54,2093.72 2610.11,2065.33 2610.11,2035.82C2610.11,1977.69 2562.77,1930.37 2504.61,1930.35C2446.46,1930.37 2399.15,1977.69 2399.15,2035.82C2399.15,2065.39 2411.68,2093.77 2433.52,2113.76C2434.37,2114.44 2435.54,2115.45 2436.72,2116.49C2455.01,2133.19 2466.34,2143.37 2468.68,2167.61L2538.79,2195.22" style="fill:none;stroke:rgb(78,123,159);stroke-width:14.54px;"/>
            <path d="M2469.58,2195.22L2500.94,2207.58" style="fill:none;stroke:rgb(78,123,159);stroke-width:14.54px;"/>
            <path d="M2503.38,1901.74L2503.38,1886.81" style="fill:none;stroke:rgb(78,123,159);stroke-width:14.54px;"/>
            <path d="M2556.73,1912.62L2562.81,1898.97" style="fill:none;stroke:rgb(78,123,159);stroke-width:14.54px;"/>
            <path d="M2601.1,1944.23L2612.18,1934.22" style="fill:none;stroke:rgb(78,123,159);stroke-width:14.54px;"/>
            <path d="M2628.79,1991.13L2642.97,1986.49" style="fill:none;stroke:rgb(78,123,159);stroke-width:14.54px;"/>
            <path d="M2379.06,1994.37L2364.83,1989.88" style="fill:none;stroke:rgb(78,123,159);stroke-width:14.54px;"/>
            <path d="M2405.52,1946.77L2394.33,1936.88" style="fill:none;stroke:rgb(78,123,159);stroke-width:14.54px;"/>
            <path d="M2449.04,1914.02L2442.83,1900.43" style="fill:none;stroke:rgb(78,123,159);stroke-width:14.54px;"/>
            <path d="M2517.92,1978.96L2476.05,2041.44L2533,2041.44L2494.71,2103.45" style="fill:none;stroke:white;stroke-width:14.54px;"/>
        </g>
    </g>
</svg>
