<?xml version="1.0" encoding="UTF-8" standalone="no"?>
<!DOCTYPE svg PUBLIC "-//W3C//DTD SVG 1.1//EN" "http://www.w3.org/Graphics/SVG/1.1/DTD/svg11.dtd">
<svg width="100%" height="100%" viewBox="0 0 1445 1445" version="1.1" xmlns="http://www.w3.org/2000/svg" xmlns:xlink="http://www.w3.org/1999/xlink" xml:space="preserve" xmlns:serif="http://www.serif.com/" style="fill-rule:evenodd;clip-rule:evenodd;stroke-linecap:round;stroke-linejoin:round;stroke-miterlimit:2;">
    <g transform="matrix(1,0,0,1,-15346,-5892)">
        <g transform="matrix(4.16667,0,0,4.16667,0,0)">
            <path d="M3698.15,1459.37L3721.17,1445.7L3721.17,1435.8C3721.17,1431.63 3724.58,1428.24 3728.71,1428.24L3972.71,1428.24C3976.86,1428.24 3980.26,1431.63 3980.26,1435.8L3980.26,1532.84C3980.26,1537 3976.86,1540.39 3972.71,1540.39L3728.71,1540.39C3724.58,1540.39 3721.17,1537 3721.17,1532.84L3721.17,1477.49" style="fill:rgb(215,224,232);fill-rule:nonzero;"/>
            <path d="M3698.15,1459.37L3721.17,1445.7L3721.17,1435.8C3721.17,1431.63 3724.58,1428.24 3728.71,1428.24L3972.71,1428.24C3976.86,1428.24 3980.26,1431.63 3980.26,1435.8L3980.26,1532.84C3980.26,1537 3976.86,1540.39 3972.71,1540.39L3728.71,1540.39C3724.58,1540.39 3721.17,1537 3721.17,1532.84L3721.17,1477.49" style="fill:none;stroke:rgb(78,123,159);stroke-width:14.54px;"/>
            <path d="M3698.15,1687.23L3721.17,1673.55L3721.17,1663.65C3721.17,1659.5 3724.58,1656.1 3728.71,1656.1L3972.71,1656.1C3976.86,1656.1 3980.26,1659.5 3980.26,1663.65L3980.26,1738.49C3980.26,1742.64 3976.86,1746.03 3972.71,1746.03L3728.71,1746.03C3724.58,1746.03 3721.17,1742.64 3721.17,1738.49L3721.17,1705.33" style="fill:rgb(241,173,171);fill-rule:nonzero;"/>
            <path d="M3698.15,1687.23L3721.17,1673.55L3721.17,1663.65C3721.17,1659.5 3724.58,1656.1 3728.71,1656.1L3972.71,1656.1C3976.86,1656.1 3980.26,1659.5 3980.26,1663.65L3980.26,1738.49C3980.26,1742.64 3976.86,1746.03 3972.71,1746.03L3728.71,1746.03C3724.58,1746.03 3721.17,1742.64 3721.17,1738.49L3721.17,1705.33" style="fill:none;stroke:rgb(78,123,159);stroke-width:14.54px;"/>
            <path d="M4024.12,1598L4003.43,1584.32L4003.43,1574.42C4003.43,1570.26 4000.03,1566.86 3995.89,1566.86L3753.4,1566.86C3749.24,1566.86 3745.85,1570.26 3745.85,1574.42L3745.85,1621.58C3745.85,1625.73 3749.24,1629.12 3753.4,1629.12L3995.89,1629.12C4000.03,1629.12 4003.43,1625.73 4003.43,1621.58L4003.43,1616.11" style="fill:rgb(251,240,188);fill-rule:nonzero;"/>
            <path d="M4024.12,1598L4003.43,1584.32L4003.43,1574.42C4003.43,1570.26 4000.03,1566.86 3995.89,1566.86L3753.4,1566.86C3749.24,1566.86 3745.85,1570.26 3745.85,1574.42L3745.85,1621.58C3745.85,1625.73 3749.24,1629.12 3753.4,1629.12L3995.89,1629.12C4000.03,1629.12 4003.43,1625.73 4003.43,1621.58L4003.43,1616.11" style="fill:none;stroke:rgb(78,123,159);stroke-width:14.54px;"/>
            <path d="M3768.35,1465.64L3934.23,1465.64" style="fill:none;stroke:rgb(78,123,159);stroke-width:14.54px;"/>
            <path d="M3768.35,1502.99L3905.79,1502.99" style="fill:none;stroke:rgb(78,123,159);stroke-width:14.54px;stroke-dasharray:18.96,25.28;"/>
            <path d="M3768.35,1687.69L3920.53,1687.69" style="fill:none;stroke:rgb(78,123,159);stroke-width:14.54px;"/>
            <path d="M3768.35,1719.11L3843.64,1719.11" style="fill:none;stroke:rgb(78,123,159);stroke-width:14.54px;stroke-dasharray:18.96,25.28;"/>
        </g>
    </g>
</svg>
