<?xml version="1.0" encoding="UTF-8" standalone="no"?>
<!DOCTYPE svg PUBLIC "-//W3C//DTD SVG 1.1//EN" "http://www.w3.org/Graphics/SVG/1.1/DTD/svg11.dtd">
<svg width="100%" height="100%" viewBox="0 0 1445 1445" version="1.1" xmlns="http://www.w3.org/2000/svg" xmlns:xlink="http://www.w3.org/1999/xlink" xml:space="preserve" xmlns:serif="http://www.serif.com/" style="fill-rule:evenodd;clip-rule:evenodd;stroke-linecap:round;stroke-linejoin:round;stroke-miterlimit:2;">
    <g transform="matrix(1,0,0,1,-11630,-2141)">
        <g transform="matrix(4.16667,0,0,4.16667,0,0)">
            <path d="M3074.13,603.893L3074.13,743.865C3074.13,760.214 3060.86,773.483 3044.51,773.483L2810.23,773.483L2810.23,560.073L3067.14,560.073" style="fill:none;stroke:rgb(78,123,159);stroke-width:14.54px;"/>
            <path d="M2899.65,773.478L2857.09,847.935" style="fill:none;stroke:rgb(78,123,159);stroke-width:14.54px;"/>
            <path d="M2984.72,773.478L3027.28,847.935" style="fill:none;stroke:rgb(78,123,159);stroke-width:14.54px;"/>
            <path d="M2942.18,773.478L2942.18,829.993" style="fill:none;stroke:rgb(78,123,159);stroke-width:14.54px;"/>
            <path d="M2879.23,815.415L2942.45,802.998L3001.89,815.415" style="fill:none;stroke:rgb(78,123,159);stroke-width:14.54px;"/>
            <path d="M2853.9,703.538L2925.87,673.338L2963.2,709.037L3048.42,667.019" style="fill:none;stroke:rgb(241,173,171);stroke-width:14.54px;"/>
            <path d="M2872.42,735.699L2872.73,735.699" style="fill:none;stroke:rgb(175,220,202);stroke-width:14.54px;"/>
            <path d="M2904.36,735.699L3017.58,735.699" style="fill:none;stroke:rgb(175,220,202);stroke-width:14.54px;stroke-dasharray:0.63,31.63;"/>
            <path d="M3033.39,735.699L3033.71,735.699" style="fill:none;stroke:rgb(175,220,202);stroke-width:14.54px;"/>
            <path d="M2801.8,560.073L3067.14,560.073" style="fill:none;stroke:rgb(78,123,159);stroke-width:14.54px;"/>
            <path d="M2852.99,673.626L2936.86,611.552L2960.77,664.315L3108.85,527.788" style="fill:none;stroke:rgb(175,220,202);stroke-width:14.54px;"/>
            <path d="M3084.74,521.844L3114.48,521.844L3114.48,551.586" style="fill:none;stroke:rgb(175,220,202);stroke-width:14.54px;"/>
            <path d="M2847.58,611.885L2847.58,735.699" style="fill:none;stroke:rgb(175,220,202);stroke-width:14.54px;"/>
        </g>
    </g>
</svg>
