<?xml version="1.0" encoding="UTF-8" standalone="no"?>
<!DOCTYPE svg PUBLIC "-//W3C//DTD SVG 1.1//EN" "http://www.w3.org/Graphics/SVG/1.1/DTD/svg11.dtd">
<svg width="100%" height="100%" viewBox="0 0 1420 1420" version="1.1" xmlns="http://www.w3.org/2000/svg" xmlns:xlink="http://www.w3.org/1999/xlink" xml:space="preserve" xmlns:serif="http://www.serif.com/" style="fill-rule:evenodd;clip-rule:evenodd;stroke-linecap:round;stroke-linejoin:round;stroke-miterlimit:2;">
    <g transform="matrix(1,0,0,1,-13506,-3984)">
        <g transform="matrix(4.16667,0,0,4.16667,0,0)">
            <path d="M3349.91,1234.72C3349.91,1227.99 3346.45,1223.09 3339.44,1219.75C3334.39,1224.69 3327.73,1227.86 3320.34,1228.65L3320.34,1255.02C3320.34,1256.77 3318.94,1258.18 3317.19,1258.18C3315.44,1258.18 3314.03,1256.77 3314.03,1255.02L3314.03,1228.7C3306.48,1228 3299.65,1224.8 3294.5,1219.77C3287.78,1223.1 3284.46,1227.99 3284.46,1234.72L3284.46,1264.66C3284.46,1264.84 3284.39,1264.99 3284.36,1265.15C3294,1270.84 3305.2,1274.17 3317.19,1274.17C3329.17,1274.17 3340.37,1270.84 3350.01,1265.16C3349.98,1264.99 3349.91,1264.84 3349.91,1264.67L3349.91,1234.72Z" style="fill:rgb(251,240,188);fill-rule:nonzero;"/>
            <path d="M3316.89,1222.67C3316.99,1222.65 3317.08,1222.6 3317.19,1222.6C3317.24,1222.6 3317.28,1222.63 3317.33,1222.63C3331.48,1222.42 3342.92,1210.8 3342.92,1196.5C3342.92,1182.09 3331.28,1170.35 3316.95,1170.35C3302.64,1170.35 3290.99,1182.09 3290.99,1196.5C3290.99,1210.9 3302.6,1222.63 3316.89,1222.67Z" style="fill:white;fill-rule:nonzero;"/>
            <path d="M3317.19,1144.42C3281.41,1144.42 3252.31,1173.52 3252.31,1209.29C3252.31,1230.4 3262.49,1249.12 3278.14,1260.98L3278.14,1234.72C3278.14,1226.06 3282.33,1219.24 3290.31,1214.8C3286.76,1209.58 3284.67,1203.28 3284.67,1196.5C3284.67,1178.6 3299.15,1164.03 3316.95,1164.03C3334.76,1164.03 3349.24,1178.6 3349.24,1196.5C3349.24,1203.29 3347.16,1209.58 3343.6,1214.8C3353.87,1220.32 3356.23,1228.5 3356.23,1234.72L3356.23,1260.98C3371.88,1249.12 3382.06,1230.4 3382.06,1209.29C3382.06,1173.52 3352.96,1144.42 3317.19,1144.42Z" style="fill:white;fill-rule:nonzero;"/>
            <path d="M3373.34,1096.84L3373.34,1070.58C3373.34,1061.93 3377.53,1055.1 3385.51,1050.66C3381.96,1045.45 3379.87,1039.15 3379.87,1032.36C3379.87,1014.46 3394.35,999.897 3412.15,999.897C3429.96,999.897 3444.44,1014.46 3444.44,1032.36C3444.44,1039.15 3442.35,1045.45 3438.81,1050.66C3449.07,1056.19 3451.42,1064.37 3451.42,1070.58L3451.42,1096.84C3467.08,1084.99 3477.26,1066.26 3477.26,1045.16C3477.26,1009.38 3448.15,980.283 3412.38,980.283C3376.61,980.283 3347.51,1009.38 3347.51,1045.16C3347.51,1066.26 3357.68,1084.99 3373.34,1096.84Z" style="fill:white;fill-rule:nonzero;"/>
            <path d="M3412.15,1006.22C3397.84,1006.22 3386.19,1017.95 3386.19,1032.36C3386.19,1046.8 3397.84,1058.54 3412.15,1058.54C3426.48,1058.54 3438.12,1046.8 3438.12,1032.36C3438.12,1017.95 3426.48,1006.22 3412.15,1006.22Z" style="fill:white;fill-rule:nonzero;"/>
            <path d="M3507.28,1222.67C3507.39,1222.65 3507.48,1222.6 3507.59,1222.6C3507.64,1222.6 3507.67,1222.63 3507.73,1222.63C3521.87,1222.42 3533.32,1210.8 3533.32,1196.5C3533.32,1182.09 3521.67,1170.35 3507.35,1170.35C3493.03,1170.35 3481.39,1182.09 3481.39,1196.5C3481.39,1210.9 3493,1222.63 3507.28,1222.67Z" style="fill:white;fill-rule:nonzero;"/>
            <path d="M3445.1,1099.82L3445.1,1070.58C3445.1,1063.86 3441.65,1058.95 3434.64,1055.61C3429.54,1060.6 3422.79,1063.79 3415.31,1064.54L3415.31,1090.96C3415.31,1092.7 3413.9,1094.12 3412.15,1094.12C3410.41,1094.12 3408.99,1092.7 3408.99,1090.96L3408.99,1064.54C3401.53,1063.79 3394.79,1060.61 3389.69,1055.63C3382.98,1058.97 3379.66,1063.86 3379.66,1070.58L3379.66,1099.81C3379.66,1100.22 3379.57,1100.58 3379.43,1100.94C3389.11,1106.68 3400.34,1110.03 3412.38,1110.03C3424.42,1110.03 3435.66,1106.68 3445.33,1100.94C3445.2,1100.59 3445.1,1100.22 3445.1,1099.82Z" style="fill:rgb(177,212,233);fill-rule:nonzero;"/>
            <path d="M3507.58,1144.42C3471.81,1144.42 3442.71,1173.52 3442.71,1209.29C3442.71,1230.4 3452.88,1249.12 3468.53,1260.98L3468.53,1234.72C3468.53,1226.06 3472.73,1219.24 3480.7,1214.8C3477.16,1209.58 3475.07,1203.28 3475.07,1196.5C3475.07,1178.6 3489.55,1164.03 3507.35,1164.03C3525.15,1164.03 3539.64,1178.6 3539.64,1196.5C3539.64,1203.29 3537.54,1209.58 3534,1214.8C3544.26,1220.32 3546.63,1228.5 3546.63,1234.72L3546.63,1260.98C3562.28,1249.12 3572.45,1230.4 3572.45,1209.29C3572.45,1173.52 3543.35,1144.42 3507.58,1144.42Z" style="fill:white;fill-rule:nonzero;"/>
            <path d="M3540.3,1234.72C3540.3,1227.98 3536.84,1223.09 3529.83,1219.75C3524.78,1224.69 3518.12,1227.86 3510.75,1228.65L3510.75,1255.02C3510.75,1256.77 3509.33,1258.18 3507.59,1258.18C3505.83,1258.18 3504.43,1256.77 3504.43,1255.02L3504.43,1228.7C3496.87,1228 3490.05,1224.8 3484.9,1219.77C3478.17,1223.1 3474.85,1227.99 3474.85,1234.72L3474.85,1264.67C3474.85,1264.84 3474.78,1264.99 3474.75,1265.15C3484.4,1270.84 3495.6,1274.17 3507.58,1274.17C3519.56,1274.17 3530.76,1270.85 3540.4,1265.16C3540.37,1264.99 3540.3,1264.84 3540.3,1264.67L3540.3,1234.72Z" style="fill:rgb(241,173,171);fill-rule:nonzero;"/>
            <path d="M3441.28,1033.19C3441.28,1049.38 3428.24,1062.52 3412.15,1062.52C3396.06,1062.52 3383.03,1049.38 3383.03,1033.19C3383.03,1017.01 3396.06,1003.88 3412.15,1003.88C3428.24,1003.88 3441.28,1017.01 3441.28,1033.19Z" style="fill:none;stroke:rgb(78,123,159);stroke-width:14.54px;"/>
            <path d="M3433.93,1052.64C3443.64,1056.53 3448.26,1062.88 3448.26,1071.41L3448.26,1100.64" style="fill:none;stroke:rgb(78,123,159);stroke-width:14.54px;"/>
            <path d="M3376.5,1100.64L3376.5,1071.41C3376.5,1063.01 3380.88,1056.57 3390.37,1052.64" style="fill:none;stroke:rgb(78,123,159);stroke-width:14.54px;"/>
            <path d="M3480.42,1045.98C3480.42,1083.55 3449.96,1114.01 3412.38,1114.01C3374.81,1114.01 3344.35,1083.55 3344.35,1045.98C3344.35,1008.41 3374.81,977.944 3412.38,977.944C3449.96,977.944 3480.42,1008.41 3480.42,1045.98Z" style="fill:none;stroke:rgb(78,123,159);stroke-width:14.54px;"/>
            <path d="M3346.08,1197.32C3346.08,1213.52 3333.03,1226.65 3316.95,1226.65C3300.87,1226.65 3287.83,1213.52 3287.83,1197.32C3287.83,1181.14 3300.87,1168.01 3316.95,1168.01C3333.03,1168.01 3346.08,1181.14 3346.08,1197.32Z" style="fill:none;stroke:rgb(78,123,159);stroke-width:14.54px;"/>
            <path d="M3338.74,1216.78C3348.44,1220.66 3353.07,1227.02 3353.07,1235.54L3353.07,1265.49" style="fill:none;stroke:rgb(78,123,159);stroke-width:14.54px;"/>
            <path d="M3281.3,1265.48L3281.3,1235.54C3281.3,1227.14 3285.68,1220.71 3295.18,1216.78" style="fill:none;stroke:rgb(78,123,159);stroke-width:14.54px;"/>
            <path d="M3385.22,1210.11C3385.22,1247.69 3354.76,1278.15 3317.19,1278.15C3279.61,1278.15 3249.15,1247.69 3249.15,1210.11C3249.15,1172.54 3279.61,1142.08 3317.19,1142.08C3354.76,1142.08 3385.22,1172.54 3385.22,1210.11Z" style="fill:none;stroke:rgb(78,123,159);stroke-width:14.54px;"/>
            <path d="M3536.48,1197.32C3536.48,1213.52 3523.44,1226.65 3507.35,1226.65C3491.26,1226.65 3478.23,1213.52 3478.23,1197.32C3478.23,1181.14 3491.26,1168.01 3507.35,1168.01C3523.44,1168.01 3536.48,1181.14 3536.48,1197.32Z" style="fill:none;stroke:rgb(78,123,159);stroke-width:14.54px;"/>
            <path d="M3529.13,1216.78C3538.84,1220.66 3543.46,1227.02 3543.46,1235.54L3543.46,1265.49" style="fill:none;stroke:rgb(78,123,159);stroke-width:14.54px;"/>
            <path d="M3471.69,1265.49L3471.69,1235.54C3471.69,1227.14 3476.07,1220.71 3485.57,1216.78" style="fill:none;stroke:rgb(78,123,159);stroke-width:14.54px;"/>
            <path d="M3575.61,1210.11C3575.61,1247.69 3545.16,1278.15 3507.58,1278.15C3470.01,1278.15 3439.55,1247.69 3439.55,1210.11C3439.55,1172.54 3470.01,1142.08 3507.58,1142.08C3545.16,1142.08 3575.61,1172.54 3575.61,1210.11Z" style="fill:none;stroke:rgb(78,123,159);stroke-width:14.54px;"/>
            <path d="M3412.15,1062.52L3412.15,1091.78" style="fill:none;stroke:rgb(78,123,159);stroke-width:14.54px;"/>
            <path d="M3317.19,1226.58L3317.19,1255.85" style="fill:none;stroke:rgb(78,123,159);stroke-width:14.54px;"/>
            <path d="M3507.59,1226.58L3507.59,1255.85" style="fill:none;stroke:rgb(78,123,159);stroke-width:14.54px;"/>
            <path d="M3480.39,1046.24C3516.7,1068.26 3541.52,1107.33 3543.75,1152.32" style="fill:none;stroke:rgb(78,123,159);stroke-width:14.54px;"/>
            <path d="M3280.52,1152.92C3282.58,1107.49 3307.65,1068.05 3344.35,1045.98" style="fill:none;stroke:rgb(78,123,159);stroke-width:14.54px;"/>
            <path d="M3478.23,1273.02C3458.81,1284.3 3436.24,1290.76 3412.16,1290.76C3387.54,1290.76 3364.51,1284.01 3344.81,1272.27" style="fill:none;stroke:rgb(78,123,159);stroke-width:14.54px;"/>
        </g>
    </g>
</svg>
