<?xml version="1.0" encoding="UTF-8" standalone="no"?>
<!DOCTYPE svg PUBLIC "-//W3C//DTD SVG 1.1//EN" "http://www.w3.org/Graphics/SVG/1.1/DTD/svg11.dtd">
<svg width="100%" height="100%" viewBox="0 0 1565 637" version="1.1" xmlns="http://www.w3.org/2000/svg" xmlns:xlink="http://www.w3.org/1999/xlink" xml:space="preserve" xmlns:serif="http://www.serif.com/" style="fill-rule:evenodd;clip-rule:evenodd;stroke-miterlimit:2;">
    <g>
        <g>
            <path d="M796.789,238.738L716.533,251.179L704.092,170.923L784.348,158.482L796.789,238.738Z" style="fill:rgb(233,164,0);fill-rule:nonzero;"/>
            <g transform="matrix(1,0,0,1,993.291,119.056)">
                <path d="M475.607,204.831C475.607,366.735 344.358,497.984 182.454,497.984C20.548,497.984 -110.701,366.735 -110.701,204.831C-110.701,42.927 20.548,-88.323 182.454,-88.323C344.358,-88.323 475.607,42.927 475.607,204.831Z" style="fill:none;stroke:rgb(233,164,0);stroke-width:10px;"/>
            </g>
            <path d="M1468.4,632.883L1400.95,565.434L1468.4,497.984L1535.85,565.434L1468.4,632.883Z" style="fill:rgb(233,164,0);fill-rule:nonzero;"/>
        </g>
        <g>
            <clipPath id="_clip1">
                <path d="M2000,0L2000,1154.83C1903,1230.61 1780.9,1287.47 1638.75,1273.84C1449.68,1255.71 1238.45,1114.14 1200.86,940.86C1176.36,827.95 1236.57,752.2 1182.61,689.99C1105.05,600.56 926.53,694.74 872.44,617.01C818.87,540.02 972.02,416.09 922.62,293.15C871.71,166.45 658.95,173.47 653.5,92.46C651.12,57.081 689.56,24.11 728.08,0L2000,0Z"/>
            </clipPath>
            <g clip-path="url(#_clip1)">
                <path d="M1528.54,25C1528.54,26.953 1526.95,28.536 1525,28.536C1523.05,28.536 1521.46,26.953 1521.46,25C1521.46,23.048 1523.05,21.465 1525,21.465C1526.95,21.465 1528.54,23.048 1528.54,25Z" style="fill:white;fill-rule:nonzero;"/>
                <path d="M1528.54,75C1528.54,76.953 1526.95,78.536 1525,78.536C1523.05,78.536 1521.46,76.953 1521.46,75C1521.46,73.048 1523.05,71.465 1525,71.465C1526.95,71.465 1528.54,73.048 1528.54,75Z" style="fill:white;fill-rule:nonzero;"/>
                <path d="M1528.54,125C1528.54,126.953 1526.95,128.536 1525,128.536C1523.05,128.536 1521.46,126.953 1521.46,125C1521.46,123.047 1523.05,121.464 1525,121.464C1526.95,121.464 1528.54,123.047 1528.54,125Z" style="fill:white;fill-rule:nonzero;"/>
                <path d="M1528.54,175C1528.54,176.953 1526.95,178.536 1525,178.536C1523.05,178.536 1521.46,176.953 1521.46,175C1521.46,173.047 1523.05,171.464 1525,171.464C1526.95,171.464 1528.54,173.047 1528.54,175Z" style="fill:white;fill-rule:nonzero;"/>
                <path d="M1528.54,225C1528.54,226.953 1526.95,228.536 1525,228.536C1523.05,228.536 1521.46,226.953 1521.46,225C1521.46,223.047 1523.05,221.464 1525,221.464C1526.95,221.464 1528.54,223.047 1528.54,225Z" style="fill:white;fill-rule:nonzero;"/>
                <path d="M1528.54,275C1528.54,276.953 1526.95,278.536 1525,278.536C1523.05,278.536 1521.46,276.953 1521.46,275C1521.46,273.047 1523.05,271.464 1525,271.464C1526.95,271.464 1528.54,273.047 1528.54,275Z" style="fill:white;fill-rule:nonzero;"/>
                <path d="M1528.54,325C1528.54,326.953 1526.95,328.536 1525,328.536C1523.05,328.536 1521.46,326.953 1521.46,325C1521.46,323.047 1523.05,321.464 1525,321.464C1526.95,321.464 1528.54,323.047 1528.54,325Z" style="fill:white;fill-rule:nonzero;"/>
                <path d="M1528.54,375C1528.54,376.953 1526.95,378.536 1525,378.536C1523.05,378.536 1521.46,376.953 1521.46,375C1521.46,373.047 1523.05,371.464 1525,371.464C1526.95,371.464 1528.54,373.047 1528.54,375Z" style="fill:white;fill-rule:nonzero;"/>
                <path d="M1528.54,425C1528.54,426.953 1526.95,428.536 1525,428.536C1523.05,428.536 1521.46,426.953 1521.46,425C1521.46,423.047 1523.05,421.464 1525,421.464C1526.95,421.464 1528.54,423.047 1528.54,425Z" style="fill:white;fill-rule:nonzero;"/>
                <path d="M1528.54,475C1528.54,476.953 1526.95,478.536 1525,478.536C1523.05,478.536 1521.46,476.953 1521.46,475C1521.46,473.047 1523.05,471.464 1525,471.464C1526.95,471.464 1528.54,473.047 1528.54,475Z" style="fill:white;fill-rule:nonzero;"/>
                <path d="M1528.54,525C1528.54,526.953 1526.95,528.536 1525,528.536C1523.05,528.536 1521.46,526.953 1521.46,525C1521.46,523.047 1523.05,521.464 1525,521.464C1526.95,521.464 1528.54,523.047 1528.54,525Z" style="fill:white;fill-rule:nonzero;"/>
                <path d="M1528.54,575C1528.54,576.953 1526.95,578.536 1525,578.536C1523.05,578.536 1521.46,576.953 1521.46,575C1521.46,573.047 1523.05,571.464 1525,571.464C1526.95,571.464 1528.54,573.047 1528.54,575Z" style="fill:white;fill-rule:nonzero;"/>
                <path d="M1528.54,625C1528.54,626.953 1526.95,628.536 1525,628.536C1523.05,628.536 1521.46,626.953 1521.46,625C1521.46,623.047 1523.05,621.464 1525,621.464C1526.95,621.464 1528.54,623.047 1528.54,625Z" style="fill:white;fill-rule:nonzero;"/>
                <path d="M1478.54,25C1478.54,26.953 1476.95,28.536 1475,28.536C1473.05,28.536 1471.46,26.953 1471.46,25C1471.46,23.048 1473.05,21.465 1475,21.465C1476.95,21.465 1478.54,23.048 1478.54,25Z" style="fill:white;fill-rule:nonzero;"/>
                <path d="M1478.54,75C1478.54,76.953 1476.95,78.536 1475,78.536C1473.05,78.536 1471.46,76.953 1471.46,75C1471.46,73.048 1473.05,71.465 1475,71.465C1476.95,71.465 1478.54,73.048 1478.54,75Z" style="fill:white;fill-rule:nonzero;"/>
                <path d="M1478.54,125C1478.54,126.953 1476.95,128.536 1475,128.536C1473.05,128.536 1471.46,126.953 1471.46,125C1471.46,123.047 1473.05,121.464 1475,121.464C1476.95,121.464 1478.54,123.047 1478.54,125Z" style="fill:white;fill-rule:nonzero;"/>
                <path d="M1478.54,175C1478.54,176.953 1476.95,178.536 1475,178.536C1473.05,178.536 1471.46,176.953 1471.46,175C1471.46,173.047 1473.05,171.464 1475,171.464C1476.95,171.464 1478.54,173.047 1478.54,175Z" style="fill:white;fill-rule:nonzero;"/>
                <path d="M1478.54,225C1478.54,226.953 1476.95,228.536 1475,228.536C1473.05,228.536 1471.46,226.953 1471.46,225C1471.46,223.047 1473.05,221.464 1475,221.464C1476.95,221.464 1478.54,223.047 1478.54,225Z" style="fill:white;fill-rule:nonzero;"/>
                <path d="M1478.54,275C1478.54,276.953 1476.95,278.536 1475,278.536C1473.05,278.536 1471.46,276.953 1471.46,275C1471.46,273.047 1473.05,271.464 1475,271.464C1476.95,271.464 1478.54,273.047 1478.54,275Z" style="fill:white;fill-rule:nonzero;"/>
                <path d="M1478.54,325C1478.54,326.953 1476.95,328.536 1475,328.536C1473.05,328.536 1471.46,326.953 1471.46,325C1471.46,323.047 1473.05,321.464 1475,321.464C1476.95,321.464 1478.54,323.047 1478.54,325Z" style="fill:white;fill-rule:nonzero;"/>
                <path d="M1478.54,375C1478.54,376.953 1476.95,378.536 1475,378.536C1473.05,378.536 1471.46,376.953 1471.46,375C1471.46,373.047 1473.05,371.464 1475,371.464C1476.95,371.464 1478.54,373.047 1478.54,375Z" style="fill:white;fill-rule:nonzero;"/>
                <path d="M1478.54,425C1478.54,426.953 1476.95,428.536 1475,428.536C1473.05,428.536 1471.46,426.953 1471.46,425C1471.46,423.047 1473.05,421.464 1475,421.464C1476.95,421.464 1478.54,423.047 1478.54,425Z" style="fill:white;fill-rule:nonzero;"/>
                <path d="M1478.54,475C1478.54,476.953 1476.95,478.536 1475,478.536C1473.05,478.536 1471.46,476.953 1471.46,475C1471.46,473.047 1473.05,471.464 1475,471.464C1476.95,471.464 1478.54,473.047 1478.54,475Z" style="fill:white;fill-rule:nonzero;"/>
                <path d="M1478.54,525C1478.54,526.953 1476.95,528.536 1475,528.536C1473.05,528.536 1471.46,526.953 1471.46,525C1471.46,523.047 1473.05,521.464 1475,521.464C1476.95,521.464 1478.54,523.047 1478.54,525Z" style="fill:white;fill-rule:nonzero;"/>
                <path d="M1478.54,575C1478.54,576.953 1476.95,578.536 1475,578.536C1473.05,578.536 1471.46,576.953 1471.46,575C1471.46,573.047 1473.05,571.464 1475,571.464C1476.95,571.464 1478.54,573.047 1478.54,575Z" style="fill:white;fill-rule:nonzero;"/>
                <path d="M1478.54,625C1478.54,626.953 1476.95,628.536 1475,628.536C1473.05,628.536 1471.46,626.953 1471.46,625C1471.46,623.047 1473.05,621.464 1475,621.464C1476.95,621.464 1478.54,623.047 1478.54,625Z" style="fill:white;fill-rule:nonzero;"/>
                <path d="M1428.54,25C1428.54,26.953 1426.95,28.536 1425,28.536C1423.05,28.536 1421.46,26.953 1421.46,25C1421.46,23.048 1423.05,21.465 1425,21.465C1426.95,21.465 1428.54,23.048 1428.54,25Z" style="fill:white;fill-rule:nonzero;"/>
                <path d="M1428.54,75C1428.54,76.953 1426.95,78.536 1425,78.536C1423.05,78.536 1421.46,76.953 1421.46,75C1421.46,73.048 1423.05,71.465 1425,71.465C1426.95,71.465 1428.54,73.048 1428.54,75Z" style="fill:white;fill-rule:nonzero;"/>
                <path d="M1428.54,125C1428.54,126.953 1426.95,128.536 1425,128.536C1423.05,128.536 1421.46,126.953 1421.46,125C1421.46,123.047 1423.05,121.464 1425,121.464C1426.95,121.464 1428.54,123.047 1428.54,125Z" style="fill:white;fill-rule:nonzero;"/>
                <path d="M1428.54,175C1428.54,176.953 1426.95,178.536 1425,178.536C1423.05,178.536 1421.46,176.953 1421.46,175C1421.46,173.047 1423.05,171.464 1425,171.464C1426.95,171.464 1428.54,173.047 1428.54,175Z" style="fill:white;fill-rule:nonzero;"/>
                <path d="M1428.54,225C1428.54,226.953 1426.95,228.536 1425,228.536C1423.05,228.536 1421.46,226.953 1421.46,225C1421.46,223.047 1423.05,221.464 1425,221.464C1426.95,221.464 1428.54,223.047 1428.54,225Z" style="fill:white;fill-rule:nonzero;"/>
                <path d="M1428.54,275C1428.54,276.953 1426.95,278.536 1425,278.536C1423.05,278.536 1421.46,276.953 1421.46,275C1421.46,273.047 1423.05,271.464 1425,271.464C1426.95,271.464 1428.54,273.047 1428.54,275Z" style="fill:white;fill-rule:nonzero;"/>
                <path d="M1428.54,325C1428.54,326.953 1426.95,328.536 1425,328.536C1423.05,328.536 1421.46,326.953 1421.46,325C1421.46,323.047 1423.05,321.464 1425,321.464C1426.95,321.464 1428.54,323.047 1428.54,325Z" style="fill:white;fill-rule:nonzero;"/>
                <path d="M1428.54,375C1428.54,376.953 1426.95,378.536 1425,378.536C1423.05,378.536 1421.46,376.953 1421.46,375C1421.46,373.047 1423.05,371.464 1425,371.464C1426.95,371.464 1428.54,373.047 1428.54,375Z" style="fill:white;fill-rule:nonzero;"/>
                <path d="M1428.54,425C1428.54,426.953 1426.95,428.536 1425,428.536C1423.05,428.536 1421.46,426.953 1421.46,425C1421.46,423.047 1423.05,421.464 1425,421.464C1426.95,421.464 1428.54,423.047 1428.54,425Z" style="fill:white;fill-rule:nonzero;"/>
                <path d="M1428.54,475C1428.54,476.953 1426.95,478.536 1425,478.536C1423.05,478.536 1421.46,476.953 1421.46,475C1421.46,473.047 1423.05,471.464 1425,471.464C1426.95,471.464 1428.54,473.047 1428.54,475Z" style="fill:white;fill-rule:nonzero;"/>
                <path d="M1428.54,525C1428.54,526.953 1426.95,528.536 1425,528.536C1423.05,528.536 1421.46,526.953 1421.46,525C1421.46,523.047 1423.05,521.464 1425,521.464C1426.95,521.464 1428.54,523.047 1428.54,525Z" style="fill:white;fill-rule:nonzero;"/>
                <path d="M1428.54,575C1428.54,576.953 1426.95,578.536 1425,578.536C1423.05,578.536 1421.46,576.953 1421.46,575C1421.46,573.047 1423.05,571.464 1425,571.464C1426.95,571.464 1428.54,573.047 1428.54,575Z" style="fill:white;fill-rule:nonzero;"/>
                <path d="M1428.54,625C1428.54,626.953 1426.95,628.536 1425,628.536C1423.05,628.536 1421.46,626.953 1421.46,625C1421.46,623.047 1423.05,621.464 1425,621.464C1426.95,621.464 1428.54,623.047 1428.54,625Z" style="fill:white;fill-rule:nonzero;"/>
                <path d="M1378.54,25C1378.54,26.953 1376.95,28.536 1375,28.536C1373.05,28.536 1371.46,26.953 1371.46,25C1371.46,23.048 1373.05,21.465 1375,21.465C1376.95,21.465 1378.54,23.048 1378.54,25Z" style="fill:white;fill-rule:nonzero;"/>
                <path d="M1378.54,75C1378.54,76.953 1376.95,78.536 1375,78.536C1373.05,78.536 1371.46,76.953 1371.46,75C1371.46,73.048 1373.05,71.465 1375,71.465C1376.95,71.465 1378.54,73.048 1378.54,75Z" style="fill:white;fill-rule:nonzero;"/>
                <path d="M1378.54,125C1378.54,126.953 1376.95,128.536 1375,128.536C1373.05,128.536 1371.46,126.953 1371.46,125C1371.46,123.047 1373.05,121.464 1375,121.464C1376.95,121.464 1378.54,123.047 1378.54,125Z" style="fill:white;fill-rule:nonzero;"/>
                <path d="M1378.54,175C1378.54,176.953 1376.95,178.536 1375,178.536C1373.05,178.536 1371.46,176.953 1371.46,175C1371.46,173.047 1373.05,171.464 1375,171.464C1376.95,171.464 1378.54,173.047 1378.54,175Z" style="fill:white;fill-rule:nonzero;"/>
                <path d="M1378.54,225C1378.54,226.953 1376.95,228.536 1375,228.536C1373.05,228.536 1371.46,226.953 1371.46,225C1371.46,223.047 1373.05,221.464 1375,221.464C1376.95,221.464 1378.54,223.047 1378.54,225Z" style="fill:white;fill-rule:nonzero;"/>
                <path d="M1378.54,275C1378.54,276.953 1376.95,278.536 1375,278.536C1373.05,278.536 1371.46,276.953 1371.46,275C1371.46,273.047 1373.05,271.464 1375,271.464C1376.95,271.464 1378.54,273.047 1378.54,275Z" style="fill:white;fill-rule:nonzero;"/>
                <path d="M1378.54,325C1378.54,326.953 1376.95,328.536 1375,328.536C1373.05,328.536 1371.46,326.953 1371.46,325C1371.46,323.047 1373.05,321.464 1375,321.464C1376.95,321.464 1378.54,323.047 1378.54,325Z" style="fill:white;fill-rule:nonzero;"/>
                <path d="M1378.54,375C1378.54,376.953 1376.95,378.536 1375,378.536C1373.05,378.536 1371.46,376.953 1371.46,375C1371.46,373.047 1373.05,371.464 1375,371.464C1376.95,371.464 1378.54,373.047 1378.54,375Z" style="fill:white;fill-rule:nonzero;"/>
                <path d="M1378.54,425C1378.54,426.953 1376.95,428.536 1375,428.536C1373.05,428.536 1371.46,426.953 1371.46,425C1371.46,423.047 1373.05,421.464 1375,421.464C1376.95,421.464 1378.54,423.047 1378.54,425Z" style="fill:white;fill-rule:nonzero;"/>
                <path d="M1378.54,475C1378.54,476.953 1376.95,478.536 1375,478.536C1373.05,478.536 1371.46,476.953 1371.46,475C1371.46,473.047 1373.05,471.464 1375,471.464C1376.95,471.464 1378.54,473.047 1378.54,475Z" style="fill:white;fill-rule:nonzero;"/>
                <path d="M1378.54,525C1378.54,526.953 1376.95,528.536 1375,528.536C1373.05,528.536 1371.46,526.953 1371.46,525C1371.46,523.047 1373.05,521.464 1375,521.464C1376.95,521.464 1378.54,523.047 1378.54,525Z" style="fill:white;fill-rule:nonzero;"/>
                <path d="M1378.54,575C1378.54,576.953 1376.95,578.536 1375,578.536C1373.05,578.536 1371.46,576.953 1371.46,575C1371.46,573.047 1373.05,571.464 1375,571.464C1376.95,571.464 1378.54,573.047 1378.54,575Z" style="fill:white;fill-rule:nonzero;"/>
                <path d="M1378.54,625C1378.54,626.953 1376.95,628.536 1375,628.536C1373.05,628.536 1371.46,626.953 1371.46,625C1371.46,623.047 1373.05,621.464 1375,621.464C1376.95,621.464 1378.54,623.047 1378.54,625Z" style="fill:white;fill-rule:nonzero;"/>
                <path d="M1328.54,25C1328.54,26.953 1326.95,28.536 1325,28.536C1323.05,28.536 1321.46,26.953 1321.46,25C1321.46,23.048 1323.05,21.465 1325,21.465C1326.95,21.465 1328.54,23.048 1328.54,25Z" style="fill:white;fill-rule:nonzero;"/>
                <path d="M1328.54,75C1328.54,76.953 1326.95,78.536 1325,78.536C1323.05,78.536 1321.46,76.953 1321.46,75C1321.46,73.048 1323.05,71.465 1325,71.465C1326.95,71.465 1328.54,73.048 1328.54,75Z" style="fill:white;fill-rule:nonzero;"/>
                <path d="M1328.54,125C1328.54,126.953 1326.95,128.536 1325,128.536C1323.05,128.536 1321.46,126.953 1321.46,125C1321.46,123.047 1323.05,121.464 1325,121.464C1326.95,121.464 1328.54,123.047 1328.54,125Z" style="fill:white;fill-rule:nonzero;"/>
                <path d="M1328.54,175C1328.54,176.953 1326.95,178.536 1325,178.536C1323.05,178.536 1321.46,176.953 1321.46,175C1321.46,173.047 1323.05,171.464 1325,171.464C1326.95,171.464 1328.54,173.047 1328.54,175Z" style="fill:white;fill-rule:nonzero;"/>
                <path d="M1328.54,225C1328.54,226.953 1326.95,228.536 1325,228.536C1323.05,228.536 1321.46,226.953 1321.46,225C1321.46,223.047 1323.05,221.464 1325,221.464C1326.95,221.464 1328.54,223.047 1328.54,225Z" style="fill:white;fill-rule:nonzero;"/>
                <path d="M1328.54,275C1328.54,276.953 1326.95,278.536 1325,278.536C1323.05,278.536 1321.46,276.953 1321.46,275C1321.46,273.047 1323.05,271.464 1325,271.464C1326.95,271.464 1328.54,273.047 1328.54,275Z" style="fill:white;fill-rule:nonzero;"/>
                <path d="M1328.54,325C1328.54,326.953 1326.95,328.536 1325,328.536C1323.05,328.536 1321.46,326.953 1321.46,325C1321.46,323.047 1323.05,321.464 1325,321.464C1326.95,321.464 1328.54,323.047 1328.54,325Z" style="fill:white;fill-rule:nonzero;"/>
                <path d="M1328.54,375C1328.54,376.953 1326.95,378.536 1325,378.536C1323.05,378.536 1321.46,376.953 1321.46,375C1321.46,373.047 1323.05,371.464 1325,371.464C1326.95,371.464 1328.54,373.047 1328.54,375Z" style="fill:white;fill-rule:nonzero;"/>
                <path d="M1328.54,425C1328.54,426.953 1326.95,428.536 1325,428.536C1323.05,428.536 1321.46,426.953 1321.46,425C1321.46,423.047 1323.05,421.464 1325,421.464C1326.95,421.464 1328.54,423.047 1328.54,425Z" style="fill:white;fill-rule:nonzero;"/>
                <path d="M1328.54,475C1328.54,476.953 1326.95,478.536 1325,478.536C1323.05,478.536 1321.46,476.953 1321.46,475C1321.46,473.047 1323.05,471.464 1325,471.464C1326.95,471.464 1328.54,473.047 1328.54,475Z" style="fill:white;fill-rule:nonzero;"/>
                <path d="M1328.54,525C1328.54,526.953 1326.95,528.536 1325,528.536C1323.05,528.536 1321.46,526.953 1321.46,525C1321.46,523.047 1323.05,521.464 1325,521.464C1326.95,521.464 1328.54,523.047 1328.54,525Z" style="fill:white;fill-rule:nonzero;"/>
                <path d="M1328.54,575C1328.54,576.953 1326.95,578.536 1325,578.536C1323.05,578.536 1321.46,576.953 1321.46,575C1321.46,573.047 1323.05,571.464 1325,571.464C1326.95,571.464 1328.54,573.047 1328.54,575Z" style="fill:white;fill-rule:nonzero;"/>
                <path d="M1328.54,625C1328.54,626.953 1326.95,628.536 1325,628.536C1323.05,628.536 1321.46,626.953 1321.46,625C1321.46,623.047 1323.05,621.464 1325,621.464C1326.95,621.464 1328.54,623.047 1328.54,625Z" style="fill:white;fill-rule:nonzero;"/>
                <path d="M1278.54,25C1278.54,26.953 1276.95,28.536 1275,28.536C1273.05,28.536 1271.46,26.953 1271.46,25C1271.46,23.048 1273.05,21.465 1275,21.465C1276.95,21.465 1278.54,23.048 1278.54,25Z" style="fill:white;fill-rule:nonzero;"/>
                <path d="M1278.54,75C1278.54,76.953 1276.95,78.536 1275,78.536C1273.05,78.536 1271.46,76.953 1271.46,75C1271.46,73.048 1273.05,71.465 1275,71.465C1276.95,71.465 1278.54,73.048 1278.54,75Z" style="fill:white;fill-rule:nonzero;"/>
                <path d="M1278.54,125C1278.54,126.953 1276.95,128.536 1275,128.536C1273.05,128.536 1271.46,126.953 1271.46,125C1271.46,123.047 1273.05,121.464 1275,121.464C1276.95,121.464 1278.54,123.047 1278.54,125Z" style="fill:white;fill-rule:nonzero;"/>
                <path d="M1278.54,175C1278.54,176.953 1276.95,178.536 1275,178.536C1273.05,178.536 1271.46,176.953 1271.46,175C1271.46,173.047 1273.05,171.464 1275,171.464C1276.95,171.464 1278.54,173.047 1278.54,175Z" style="fill:white;fill-rule:nonzero;"/>
                <path d="M1278.54,225C1278.54,226.953 1276.95,228.536 1275,228.536C1273.05,228.536 1271.46,226.953 1271.46,225C1271.46,223.047 1273.05,221.464 1275,221.464C1276.95,221.464 1278.54,223.047 1278.54,225Z" style="fill:white;fill-rule:nonzero;"/>
                <path d="M1278.54,275C1278.54,276.953 1276.95,278.536 1275,278.536C1273.05,278.536 1271.46,276.953 1271.46,275C1271.46,273.047 1273.05,271.464 1275,271.464C1276.95,271.464 1278.54,273.047 1278.54,275Z" style="fill:white;fill-rule:nonzero;"/>
                <path d="M1278.54,325C1278.54,326.953 1276.95,328.536 1275,328.536C1273.05,328.536 1271.46,326.953 1271.46,325C1271.46,323.047 1273.05,321.464 1275,321.464C1276.95,321.464 1278.54,323.047 1278.54,325Z" style="fill:white;fill-rule:nonzero;"/>
                <path d="M1278.54,375C1278.54,376.953 1276.95,378.536 1275,378.536C1273.05,378.536 1271.46,376.953 1271.46,375C1271.46,373.047 1273.05,371.464 1275,371.464C1276.95,371.464 1278.54,373.047 1278.54,375Z" style="fill:white;fill-rule:nonzero;"/>
                <path d="M1278.54,425C1278.54,426.953 1276.95,428.536 1275,428.536C1273.05,428.536 1271.46,426.953 1271.46,425C1271.46,423.047 1273.05,421.464 1275,421.464C1276.95,421.464 1278.54,423.047 1278.54,425Z" style="fill:white;fill-rule:nonzero;"/>
                <path d="M1278.54,475C1278.54,476.953 1276.95,478.536 1275,478.536C1273.05,478.536 1271.46,476.953 1271.46,475C1271.46,473.047 1273.05,471.464 1275,471.464C1276.95,471.464 1278.54,473.047 1278.54,475Z" style="fill:white;fill-rule:nonzero;"/>
                <path d="M1278.54,525C1278.54,526.953 1276.95,528.536 1275,528.536C1273.05,528.536 1271.46,526.953 1271.46,525C1271.46,523.047 1273.05,521.464 1275,521.464C1276.95,521.464 1278.54,523.047 1278.54,525Z" style="fill:white;fill-rule:nonzero;"/>
                <path d="M1278.54,575C1278.54,576.953 1276.95,578.536 1275,578.536C1273.05,578.536 1271.46,576.953 1271.46,575C1271.46,573.047 1273.05,571.464 1275,571.464C1276.95,571.464 1278.54,573.047 1278.54,575Z" style="fill:white;fill-rule:nonzero;"/>
                <path d="M1278.54,625C1278.54,626.953 1276.95,628.536 1275,628.536C1273.05,628.536 1271.46,626.953 1271.46,625C1271.46,623.047 1273.05,621.464 1275,621.464C1276.95,621.464 1278.54,623.047 1278.54,625Z" style="fill:white;fill-rule:nonzero;"/>
                <path d="M1228.54,25C1228.54,26.953 1226.95,28.536 1225,28.536C1223.05,28.536 1221.46,26.953 1221.46,25C1221.46,23.048 1223.05,21.465 1225,21.465C1226.95,21.465 1228.54,23.048 1228.54,25Z" style="fill:white;fill-rule:nonzero;"/>
                <path d="M1228.54,75C1228.54,76.953 1226.95,78.536 1225,78.536C1223.05,78.536 1221.46,76.953 1221.46,75C1221.46,73.048 1223.05,71.465 1225,71.465C1226.95,71.465 1228.54,73.048 1228.54,75Z" style="fill:white;fill-rule:nonzero;"/>
                <path d="M1228.54,125C1228.54,126.953 1226.95,128.536 1225,128.536C1223.05,128.536 1221.46,126.953 1221.46,125C1221.46,123.047 1223.05,121.464 1225,121.464C1226.95,121.464 1228.54,123.047 1228.54,125Z" style="fill:white;fill-rule:nonzero;"/>
                <path d="M1228.54,175C1228.54,176.953 1226.95,178.536 1225,178.536C1223.05,178.536 1221.46,176.953 1221.46,175C1221.46,173.047 1223.05,171.464 1225,171.464C1226.95,171.464 1228.54,173.047 1228.54,175Z" style="fill:white;fill-rule:nonzero;"/>
                <path d="M1228.54,225C1228.54,226.953 1226.95,228.536 1225,228.536C1223.05,228.536 1221.46,226.953 1221.46,225C1221.46,223.047 1223.05,221.464 1225,221.464C1226.95,221.464 1228.54,223.047 1228.54,225Z" style="fill:white;fill-rule:nonzero;"/>
                <path d="M1228.54,275C1228.54,276.953 1226.95,278.536 1225,278.536C1223.05,278.536 1221.46,276.953 1221.46,275C1221.46,273.047 1223.05,271.464 1225,271.464C1226.95,271.464 1228.54,273.047 1228.54,275Z" style="fill:white;fill-rule:nonzero;"/>
                <path d="M1228.54,325C1228.54,326.953 1226.95,328.536 1225,328.536C1223.05,328.536 1221.46,326.953 1221.46,325C1221.46,323.047 1223.05,321.464 1225,321.464C1226.95,321.464 1228.54,323.047 1228.54,325Z" style="fill:white;fill-rule:nonzero;"/>
                <path d="M1228.54,375C1228.54,376.953 1226.95,378.536 1225,378.536C1223.05,378.536 1221.46,376.953 1221.46,375C1221.46,373.047 1223.05,371.464 1225,371.464C1226.95,371.464 1228.54,373.047 1228.54,375Z" style="fill:white;fill-rule:nonzero;"/>
                <path d="M1228.54,425C1228.54,426.953 1226.95,428.536 1225,428.536C1223.05,428.536 1221.46,426.953 1221.46,425C1221.46,423.047 1223.05,421.464 1225,421.464C1226.95,421.464 1228.54,423.047 1228.54,425Z" style="fill:white;fill-rule:nonzero;"/>
                <path d="M1228.54,475C1228.54,476.953 1226.95,478.536 1225,478.536C1223.05,478.536 1221.46,476.953 1221.46,475C1221.46,473.047 1223.05,471.464 1225,471.464C1226.95,471.464 1228.54,473.047 1228.54,475Z" style="fill:white;fill-rule:nonzero;"/>
                <path d="M1228.54,525C1228.54,526.953 1226.95,528.536 1225,528.536C1223.05,528.536 1221.46,526.953 1221.46,525C1221.46,523.047 1223.05,521.464 1225,521.464C1226.95,521.464 1228.54,523.047 1228.54,525Z" style="fill:white;fill-rule:nonzero;"/>
                <path d="M1228.54,575C1228.54,576.953 1226.95,578.536 1225,578.536C1223.05,578.536 1221.46,576.953 1221.46,575C1221.46,573.047 1223.05,571.464 1225,571.464C1226.95,571.464 1228.54,573.047 1228.54,575Z" style="fill:white;fill-rule:nonzero;"/>
                <path d="M1228.54,625C1228.54,626.953 1226.95,628.536 1225,628.536C1223.05,628.536 1221.46,626.953 1221.46,625C1221.46,623.047 1223.05,621.464 1225,621.464C1226.95,621.464 1228.54,623.047 1228.54,625Z" style="fill:white;fill-rule:nonzero;"/>
                <path d="M1178.54,25C1178.54,26.953 1176.95,28.536 1175,28.536C1173.05,28.536 1171.46,26.953 1171.46,25C1171.46,23.048 1173.05,21.465 1175,21.465C1176.95,21.465 1178.54,23.048 1178.54,25Z" style="fill:white;fill-rule:nonzero;"/>
                <path d="M1178.54,75C1178.54,76.953 1176.95,78.536 1175,78.536C1173.05,78.536 1171.46,76.953 1171.46,75C1171.46,73.048 1173.05,71.465 1175,71.465C1176.95,71.465 1178.54,73.048 1178.54,75Z" style="fill:white;fill-rule:nonzero;"/>
                <path d="M1178.54,125C1178.54,126.953 1176.95,128.536 1175,128.536C1173.05,128.536 1171.46,126.953 1171.46,125C1171.46,123.047 1173.05,121.464 1175,121.464C1176.95,121.464 1178.54,123.047 1178.54,125Z" style="fill:white;fill-rule:nonzero;"/>
                <path d="M1178.54,175C1178.54,176.953 1176.95,178.536 1175,178.536C1173.05,178.536 1171.46,176.953 1171.46,175C1171.46,173.047 1173.05,171.464 1175,171.464C1176.95,171.464 1178.54,173.047 1178.54,175Z" style="fill:white;fill-rule:nonzero;"/>
                <path d="M1178.54,225C1178.54,226.953 1176.95,228.536 1175,228.536C1173.05,228.536 1171.46,226.953 1171.46,225C1171.46,223.047 1173.05,221.464 1175,221.464C1176.95,221.464 1178.54,223.047 1178.54,225Z" style="fill:white;fill-rule:nonzero;"/>
                <path d="M1178.54,275C1178.54,276.953 1176.95,278.536 1175,278.536C1173.05,278.536 1171.46,276.953 1171.46,275C1171.46,273.047 1173.05,271.464 1175,271.464C1176.95,271.464 1178.54,273.047 1178.54,275Z" style="fill:white;fill-rule:nonzero;"/>
                <path d="M1178.54,325C1178.54,326.953 1176.95,328.536 1175,328.536C1173.05,328.536 1171.46,326.953 1171.46,325C1171.46,323.047 1173.05,321.464 1175,321.464C1176.95,321.464 1178.54,323.047 1178.54,325Z" style="fill:white;fill-rule:nonzero;"/>
                <path d="M1178.54,375C1178.54,376.953 1176.95,378.536 1175,378.536C1173.05,378.536 1171.46,376.953 1171.46,375C1171.46,373.047 1173.05,371.464 1175,371.464C1176.95,371.464 1178.54,373.047 1178.54,375Z" style="fill:white;fill-rule:nonzero;"/>
                <path d="M1178.54,425C1178.54,426.953 1176.95,428.536 1175,428.536C1173.05,428.536 1171.46,426.953 1171.46,425C1171.46,423.047 1173.05,421.464 1175,421.464C1176.95,421.464 1178.54,423.047 1178.54,425Z" style="fill:white;fill-rule:nonzero;"/>
                <path d="M1178.54,475C1178.54,476.953 1176.95,478.536 1175,478.536C1173.05,478.536 1171.46,476.953 1171.46,475C1171.46,473.047 1173.05,471.464 1175,471.464C1176.95,471.464 1178.54,473.047 1178.54,475Z" style="fill:white;fill-rule:nonzero;"/>
                <path d="M1178.54,525C1178.54,526.953 1176.95,528.536 1175,528.536C1173.05,528.536 1171.46,526.953 1171.46,525C1171.46,523.047 1173.05,521.464 1175,521.464C1176.95,521.464 1178.54,523.047 1178.54,525Z" style="fill:white;fill-rule:nonzero;"/>
                <path d="M1178.54,575C1178.54,576.953 1176.95,578.536 1175,578.536C1173.05,578.536 1171.46,576.953 1171.46,575C1171.46,573.047 1173.05,571.464 1175,571.464C1176.95,571.464 1178.54,573.047 1178.54,575Z" style="fill:white;fill-rule:nonzero;"/>
                <path d="M1178.54,625C1178.54,626.953 1176.95,628.536 1175,628.536C1173.05,628.536 1171.46,626.953 1171.46,625C1171.46,623.047 1173.05,621.464 1175,621.464C1176.95,621.464 1178.54,623.047 1178.54,625Z" style="fill:white;fill-rule:nonzero;"/>
                <path d="M1128.54,25C1128.54,26.953 1126.95,28.536 1125,28.536C1123.05,28.536 1121.46,26.953 1121.46,25C1121.46,23.048 1123.05,21.465 1125,21.465C1126.95,21.465 1128.54,23.048 1128.54,25Z" style="fill:white;fill-rule:nonzero;"/>
                <path d="M1128.54,75C1128.54,76.953 1126.95,78.536 1125,78.536C1123.05,78.536 1121.46,76.953 1121.46,75C1121.46,73.048 1123.05,71.465 1125,71.465C1126.95,71.465 1128.54,73.048 1128.54,75Z" style="fill:white;fill-rule:nonzero;"/>
                <path d="M1128.54,125C1128.54,126.953 1126.95,128.536 1125,128.536C1123.05,128.536 1121.46,126.953 1121.46,125C1121.46,123.047 1123.05,121.464 1125,121.464C1126.95,121.464 1128.54,123.047 1128.54,125Z" style="fill:white;fill-rule:nonzero;"/>
                <path d="M1128.54,175C1128.54,176.953 1126.95,178.536 1125,178.536C1123.05,178.536 1121.46,176.953 1121.46,175C1121.46,173.047 1123.05,171.464 1125,171.464C1126.95,171.464 1128.54,173.047 1128.54,175Z" style="fill:white;fill-rule:nonzero;"/>
                <path d="M1128.54,225C1128.54,226.953 1126.95,228.536 1125,228.536C1123.05,228.536 1121.46,226.953 1121.46,225C1121.46,223.047 1123.05,221.464 1125,221.464C1126.95,221.464 1128.54,223.047 1128.54,225Z" style="fill:white;fill-rule:nonzero;"/>
                <path d="M1128.54,275C1128.54,276.953 1126.95,278.536 1125,278.536C1123.05,278.536 1121.46,276.953 1121.46,275C1121.46,273.047 1123.05,271.464 1125,271.464C1126.95,271.464 1128.54,273.047 1128.54,275Z" style="fill:white;fill-rule:nonzero;"/>
                <path d="M1128.54,325C1128.54,326.953 1126.95,328.536 1125,328.536C1123.05,328.536 1121.46,326.953 1121.46,325C1121.46,323.047 1123.05,321.464 1125,321.464C1126.95,321.464 1128.54,323.047 1128.54,325Z" style="fill:white;fill-rule:nonzero;"/>
                <path d="M1128.54,375C1128.54,376.953 1126.95,378.536 1125,378.536C1123.05,378.536 1121.46,376.953 1121.46,375C1121.46,373.047 1123.05,371.464 1125,371.464C1126.95,371.464 1128.54,373.047 1128.54,375Z" style="fill:white;fill-rule:nonzero;"/>
                <path d="M1128.54,425C1128.54,426.953 1126.95,428.536 1125,428.536C1123.05,428.536 1121.46,426.953 1121.46,425C1121.46,423.047 1123.05,421.464 1125,421.464C1126.95,421.464 1128.54,423.047 1128.54,425Z" style="fill:white;fill-rule:nonzero;"/>
                <path d="M1128.54,475C1128.54,476.953 1126.95,478.536 1125,478.536C1123.05,478.536 1121.46,476.953 1121.46,475C1121.46,473.047 1123.05,471.464 1125,471.464C1126.95,471.464 1128.54,473.047 1128.54,475Z" style="fill:white;fill-rule:nonzero;"/>
                <path d="M1128.54,525C1128.54,526.953 1126.95,528.536 1125,528.536C1123.05,528.536 1121.46,526.953 1121.46,525C1121.46,523.047 1123.05,521.464 1125,521.464C1126.95,521.464 1128.54,523.047 1128.54,525Z" style="fill:white;fill-rule:nonzero;"/>
                <path d="M1128.54,575C1128.54,576.953 1126.95,578.536 1125,578.536C1123.05,578.536 1121.46,576.953 1121.46,575C1121.46,573.047 1123.05,571.464 1125,571.464C1126.95,571.464 1128.54,573.047 1128.54,575Z" style="fill:white;fill-rule:nonzero;"/>
                <path d="M1128.54,625C1128.54,626.953 1126.95,628.536 1125,628.536C1123.05,628.536 1121.46,626.953 1121.46,625C1121.46,623.047 1123.05,621.464 1125,621.464C1126.95,621.464 1128.54,623.047 1128.54,625Z" style="fill:white;fill-rule:nonzero;"/>
                <path d="M1078.54,25C1078.54,26.953 1076.95,28.536 1075,28.536C1073.05,28.536 1071.46,26.953 1071.46,25C1071.46,23.048 1073.05,21.465 1075,21.465C1076.95,21.465 1078.54,23.048 1078.54,25Z" style="fill:white;fill-rule:nonzero;"/>
                <path d="M1078.54,75C1078.54,76.953 1076.95,78.536 1075,78.536C1073.05,78.536 1071.46,76.953 1071.46,75C1071.46,73.048 1073.05,71.465 1075,71.465C1076.95,71.465 1078.54,73.048 1078.54,75Z" style="fill:white;fill-rule:nonzero;"/>
                <path d="M1078.54,125C1078.54,126.953 1076.95,128.536 1075,128.536C1073.05,128.536 1071.46,126.953 1071.46,125C1071.46,123.047 1073.05,121.464 1075,121.464C1076.95,121.464 1078.54,123.047 1078.54,125Z" style="fill:white;fill-rule:nonzero;"/>
                <path d="M1078.54,175C1078.54,176.953 1076.95,178.536 1075,178.536C1073.05,178.536 1071.46,176.953 1071.46,175C1071.46,173.047 1073.05,171.464 1075,171.464C1076.95,171.464 1078.54,173.047 1078.54,175Z" style="fill:white;fill-rule:nonzero;"/>
                <path d="M1078.54,225C1078.54,226.953 1076.95,228.536 1075,228.536C1073.05,228.536 1071.46,226.953 1071.46,225C1071.46,223.047 1073.05,221.464 1075,221.464C1076.95,221.464 1078.54,223.047 1078.54,225Z" style="fill:white;fill-rule:nonzero;"/>
                <path d="M1078.54,275C1078.54,276.953 1076.95,278.536 1075,278.536C1073.05,278.536 1071.46,276.953 1071.46,275C1071.46,273.047 1073.05,271.464 1075,271.464C1076.95,271.464 1078.54,273.047 1078.54,275Z" style="fill:white;fill-rule:nonzero;"/>
                <path d="M1078.54,325C1078.54,326.953 1076.95,328.536 1075,328.536C1073.05,328.536 1071.46,326.953 1071.46,325C1071.46,323.047 1073.05,321.464 1075,321.464C1076.95,321.464 1078.54,323.047 1078.54,325Z" style="fill:white;fill-rule:nonzero;"/>
                <path d="M1078.54,375C1078.54,376.953 1076.95,378.536 1075,378.536C1073.05,378.536 1071.46,376.953 1071.46,375C1071.46,373.047 1073.05,371.464 1075,371.464C1076.95,371.464 1078.54,373.047 1078.54,375Z" style="fill:white;fill-rule:nonzero;"/>
                <path d="M1078.54,425C1078.54,426.953 1076.95,428.536 1075,428.536C1073.05,428.536 1071.46,426.953 1071.46,425C1071.46,423.047 1073.05,421.464 1075,421.464C1076.95,421.464 1078.54,423.047 1078.54,425Z" style="fill:white;fill-rule:nonzero;"/>
                <path d="M1078.54,475C1078.54,476.953 1076.95,478.536 1075,478.536C1073.05,478.536 1071.46,476.953 1071.46,475C1071.46,473.047 1073.05,471.464 1075,471.464C1076.95,471.464 1078.54,473.047 1078.54,475Z" style="fill:white;fill-rule:nonzero;"/>
                <path d="M1078.54,525C1078.54,526.953 1076.95,528.536 1075,528.536C1073.05,528.536 1071.46,526.953 1071.46,525C1071.46,523.047 1073.05,521.464 1075,521.464C1076.95,521.464 1078.54,523.047 1078.54,525Z" style="fill:white;fill-rule:nonzero;"/>
                <path d="M1078.54,575C1078.54,576.953 1076.95,578.536 1075,578.536C1073.05,578.536 1071.46,576.953 1071.46,575C1071.46,573.047 1073.05,571.464 1075,571.464C1076.95,571.464 1078.54,573.047 1078.54,575Z" style="fill:white;fill-rule:nonzero;"/>
                <path d="M1078.54,625C1078.54,626.953 1076.95,628.536 1075,628.536C1073.05,628.536 1071.46,626.953 1071.46,625C1071.46,623.047 1073.05,621.464 1075,621.464C1076.95,621.464 1078.54,623.047 1078.54,625Z" style="fill:white;fill-rule:nonzero;"/>
                <path d="M1028.54,25C1028.54,26.953 1026.95,28.536 1025,28.536C1023.05,28.536 1021.46,26.953 1021.46,25C1021.46,23.048 1023.05,21.465 1025,21.465C1026.95,21.465 1028.54,23.048 1028.54,25Z" style="fill:white;fill-rule:nonzero;"/>
                <path d="M1028.54,75C1028.54,76.953 1026.95,78.536 1025,78.536C1023.05,78.536 1021.46,76.953 1021.46,75C1021.46,73.048 1023.05,71.465 1025,71.465C1026.95,71.465 1028.54,73.048 1028.54,75Z" style="fill:white;fill-rule:nonzero;"/>
                <path d="M1028.54,125C1028.54,126.953 1026.95,128.536 1025,128.536C1023.05,128.536 1021.46,126.953 1021.46,125C1021.46,123.047 1023.05,121.464 1025,121.464C1026.95,121.464 1028.54,123.047 1028.54,125Z" style="fill:white;fill-rule:nonzero;"/>
                <path d="M1028.54,175C1028.54,176.953 1026.95,178.536 1025,178.536C1023.05,178.536 1021.46,176.953 1021.46,175C1021.46,173.047 1023.05,171.464 1025,171.464C1026.95,171.464 1028.54,173.047 1028.54,175Z" style="fill:white;fill-rule:nonzero;"/>
                <path d="M1028.54,225C1028.54,226.953 1026.95,228.536 1025,228.536C1023.05,228.536 1021.46,226.953 1021.46,225C1021.46,223.047 1023.05,221.464 1025,221.464C1026.95,221.464 1028.54,223.047 1028.54,225Z" style="fill:white;fill-rule:nonzero;"/>
                <path d="M1028.54,275C1028.54,276.953 1026.95,278.536 1025,278.536C1023.05,278.536 1021.46,276.953 1021.46,275C1021.46,273.047 1023.05,271.464 1025,271.464C1026.95,271.464 1028.54,273.047 1028.54,275Z" style="fill:white;fill-rule:nonzero;"/>
                <path d="M1028.54,325C1028.54,326.953 1026.95,328.536 1025,328.536C1023.05,328.536 1021.46,326.953 1021.46,325C1021.46,323.047 1023.05,321.464 1025,321.464C1026.95,321.464 1028.54,323.047 1028.54,325Z" style="fill:white;fill-rule:nonzero;"/>
                <path d="M1028.54,375C1028.54,376.953 1026.95,378.536 1025,378.536C1023.05,378.536 1021.46,376.953 1021.46,375C1021.46,373.047 1023.05,371.464 1025,371.464C1026.95,371.464 1028.54,373.047 1028.54,375Z" style="fill:white;fill-rule:nonzero;"/>
                <path d="M1028.54,425C1028.54,426.953 1026.95,428.536 1025,428.536C1023.05,428.536 1021.46,426.953 1021.46,425C1021.46,423.047 1023.05,421.464 1025,421.464C1026.95,421.464 1028.54,423.047 1028.54,425Z" style="fill:white;fill-rule:nonzero;"/>
                <path d="M1028.54,475C1028.54,476.953 1026.95,478.536 1025,478.536C1023.05,478.536 1021.46,476.953 1021.46,475C1021.46,473.047 1023.05,471.464 1025,471.464C1026.95,471.464 1028.54,473.047 1028.54,475Z" style="fill:white;fill-rule:nonzero;"/>
                <path d="M1028.54,525C1028.54,526.953 1026.95,528.536 1025,528.536C1023.05,528.536 1021.46,526.953 1021.46,525C1021.46,523.047 1023.05,521.464 1025,521.464C1026.95,521.464 1028.54,523.047 1028.54,525Z" style="fill:white;fill-rule:nonzero;"/>
                <path d="M1028.54,575C1028.54,576.953 1026.95,578.536 1025,578.536C1023.05,578.536 1021.46,576.953 1021.46,575C1021.46,573.047 1023.05,571.464 1025,571.464C1026.95,571.464 1028.54,573.047 1028.54,575Z" style="fill:white;fill-rule:nonzero;"/>
                <path d="M1028.54,625C1028.54,626.953 1026.95,628.536 1025,628.536C1023.05,628.536 1021.46,626.953 1021.46,625C1021.46,623.047 1023.05,621.464 1025,621.464C1026.95,621.464 1028.54,623.047 1028.54,625Z" style="fill:white;fill-rule:nonzero;"/>
                <path d="M978.536,25C978.536,26.953 976.953,28.536 975,28.536C973.047,28.536 971.464,26.953 971.464,25C971.464,23.048 973.047,21.465 975,21.465C976.953,21.465 978.536,23.048 978.536,25Z" style="fill:white;fill-rule:nonzero;"/>
                <path d="M978.536,75C978.536,76.953 976.953,78.536 975,78.536C973.047,78.536 971.464,76.953 971.464,75C971.464,73.048 973.047,71.465 975,71.465C976.953,71.465 978.536,73.048 978.536,75Z" style="fill:white;fill-rule:nonzero;"/>
                <path d="M978.536,125C978.536,126.953 976.953,128.536 975,128.536C973.047,128.536 971.464,126.953 971.464,125C971.464,123.047 973.047,121.464 975,121.464C976.953,121.464 978.536,123.047 978.536,125Z" style="fill:white;fill-rule:nonzero;"/>
                <path d="M978.536,175C978.536,176.953 976.953,178.536 975,178.536C973.047,178.536 971.464,176.953 971.464,175C971.464,173.047 973.047,171.464 975,171.464C976.953,171.464 978.536,173.047 978.536,175Z" style="fill:white;fill-rule:nonzero;"/>
                <path d="M978.536,225C978.536,226.953 976.953,228.536 975,228.536C973.047,228.536 971.464,226.953 971.464,225C971.464,223.047 973.047,221.464 975,221.464C976.953,221.464 978.536,223.047 978.536,225Z" style="fill:white;fill-rule:nonzero;"/>
                <path d="M978.536,275C978.536,276.953 976.953,278.536 975,278.536C973.047,278.536 971.464,276.953 971.464,275C971.464,273.047 973.047,271.464 975,271.464C976.953,271.464 978.536,273.047 978.536,275Z" style="fill:white;fill-rule:nonzero;"/>
                <path d="M978.536,325C978.536,326.953 976.953,328.536 975,328.536C973.047,328.536 971.464,326.953 971.464,325C971.464,323.047 973.047,321.464 975,321.464C976.953,321.464 978.536,323.047 978.536,325Z" style="fill:white;fill-rule:nonzero;"/>
                <path d="M978.536,375C978.536,376.953 976.953,378.536 975,378.536C973.047,378.536 971.464,376.953 971.464,375C971.464,373.047 973.047,371.464 975,371.464C976.953,371.464 978.536,373.047 978.536,375Z" style="fill:white;fill-rule:nonzero;"/>
                <path d="M978.536,425C978.536,426.953 976.953,428.536 975,428.536C973.047,428.536 971.464,426.953 971.464,425C971.464,423.047 973.047,421.464 975,421.464C976.953,421.464 978.536,423.047 978.536,425Z" style="fill:white;fill-rule:nonzero;"/>
                <path d="M978.536,475C978.536,476.953 976.953,478.536 975,478.536C973.047,478.536 971.464,476.953 971.464,475C971.464,473.047 973.047,471.464 975,471.464C976.953,471.464 978.536,473.047 978.536,475Z" style="fill:white;fill-rule:nonzero;"/>
                <path d="M978.536,525C978.536,526.953 976.953,528.536 975,528.536C973.047,528.536 971.464,526.953 971.464,525C971.464,523.047 973.047,521.464 975,521.464C976.953,521.464 978.536,523.047 978.536,525Z" style="fill:white;fill-rule:nonzero;"/>
                <path d="M978.536,575C978.536,576.953 976.953,578.536 975,578.536C973.047,578.536 971.464,576.953 971.464,575C971.464,573.047 973.047,571.464 975,571.464C976.953,571.464 978.536,573.047 978.536,575Z" style="fill:white;fill-rule:nonzero;"/>
                <path d="M978.536,625C978.536,626.953 976.953,628.536 975,628.536C973.047,628.536 971.464,626.953 971.464,625C971.464,623.047 973.047,621.464 975,621.464C976.953,621.464 978.536,623.047 978.536,625Z" style="fill:white;fill-rule:nonzero;"/>
                <path d="M928.536,25C928.536,26.953 926.953,28.536 925,28.536C923.047,28.536 921.464,26.953 921.464,25C921.464,23.048 923.047,21.465 925,21.465C926.953,21.465 928.536,23.048 928.536,25Z" style="fill:white;fill-rule:nonzero;"/>
                <path d="M928.536,75C928.536,76.953 926.953,78.536 925,78.536C923.047,78.536 921.464,76.953 921.464,75C921.464,73.048 923.047,71.465 925,71.465C926.953,71.465 928.536,73.048 928.536,75Z" style="fill:white;fill-rule:nonzero;"/>
                <path d="M928.536,125C928.536,126.953 926.953,128.536 925,128.536C923.047,128.536 921.464,126.953 921.464,125C921.464,123.047 923.047,121.464 925,121.464C926.953,121.464 928.536,123.047 928.536,125Z" style="fill:white;fill-rule:nonzero;"/>
                <path d="M928.536,175C928.536,176.953 926.953,178.536 925,178.536C923.047,178.536 921.464,176.953 921.464,175C921.464,173.047 923.047,171.464 925,171.464C926.953,171.464 928.536,173.047 928.536,175Z" style="fill:white;fill-rule:nonzero;"/>
                <path d="M928.536,225C928.536,226.953 926.953,228.536 925,228.536C923.047,228.536 921.464,226.953 921.464,225C921.464,223.047 923.047,221.464 925,221.464C926.953,221.464 928.536,223.047 928.536,225Z" style="fill:white;fill-rule:nonzero;"/>
                <path d="M928.536,275C928.536,276.953 926.953,278.536 925,278.536C923.047,278.536 921.464,276.953 921.464,275C921.464,273.047 923.047,271.464 925,271.464C926.953,271.464 928.536,273.047 928.536,275Z" style="fill:white;fill-rule:nonzero;"/>
                <path d="M928.536,325C928.536,326.953 926.953,328.536 925,328.536C923.047,328.536 921.464,326.953 921.464,325C921.464,323.047 923.047,321.464 925,321.464C926.953,321.464 928.536,323.047 928.536,325Z" style="fill:white;fill-rule:nonzero;"/>
                <path d="M928.536,375C928.536,376.953 926.953,378.536 925,378.536C923.047,378.536 921.464,376.953 921.464,375C921.464,373.047 923.047,371.464 925,371.464C926.953,371.464 928.536,373.047 928.536,375Z" style="fill:white;fill-rule:nonzero;"/>
                <path d="M928.536,425C928.536,426.953 926.953,428.536 925,428.536C923.047,428.536 921.464,426.953 921.464,425C921.464,423.047 923.047,421.464 925,421.464C926.953,421.464 928.536,423.047 928.536,425Z" style="fill:white;fill-rule:nonzero;"/>
                <path d="M928.536,475C928.536,476.953 926.953,478.536 925,478.536C923.047,478.536 921.464,476.953 921.464,475C921.464,473.047 923.047,471.464 925,471.464C926.953,471.464 928.536,473.047 928.536,475Z" style="fill:white;fill-rule:nonzero;"/>
                <path d="M928.536,525C928.536,526.953 926.953,528.536 925,528.536C923.047,528.536 921.464,526.953 921.464,525C921.464,523.047 923.047,521.464 925,521.464C926.953,521.464 928.536,523.047 928.536,525Z" style="fill:white;fill-rule:nonzero;"/>
                <path d="M928.536,575C928.536,576.953 926.953,578.536 925,578.536C923.047,578.536 921.464,576.953 921.464,575C921.464,573.047 923.047,571.464 925,571.464C926.953,571.464 928.536,573.047 928.536,575Z" style="fill:white;fill-rule:nonzero;"/>
                <path d="M928.536,625C928.536,626.953 926.953,628.536 925,628.536C923.047,628.536 921.464,626.953 921.464,625C921.464,623.047 923.047,621.464 925,621.464C926.953,621.464 928.536,623.047 928.536,625Z" style="fill:white;fill-rule:nonzero;"/>
                <path d="M878.536,25C878.536,26.953 876.953,28.536 875,28.536C873.047,28.536 871.464,26.953 871.464,25C871.464,23.048 873.047,21.465 875,21.465C876.953,21.465 878.536,23.048 878.536,25Z" style="fill:white;fill-rule:nonzero;"/>
                <path d="M878.536,75C878.536,76.953 876.953,78.536 875,78.536C873.047,78.536 871.464,76.953 871.464,75C871.464,73.048 873.047,71.465 875,71.465C876.953,71.465 878.536,73.048 878.536,75Z" style="fill:white;fill-rule:nonzero;"/>
                <path d="M878.536,125C878.536,126.953 876.953,128.536 875,128.536C873.047,128.536 871.464,126.953 871.464,125C871.464,123.047 873.047,121.464 875,121.464C876.953,121.464 878.536,123.047 878.536,125Z" style="fill:white;fill-rule:nonzero;"/>
                <path d="M878.536,175C878.536,176.953 876.953,178.536 875,178.536C873.047,178.536 871.464,176.953 871.464,175C871.464,173.047 873.047,171.464 875,171.464C876.953,171.464 878.536,173.047 878.536,175Z" style="fill:white;fill-rule:nonzero;"/>
                <path d="M878.536,225C878.536,226.953 876.953,228.536 875,228.536C873.047,228.536 871.464,226.953 871.464,225C871.464,223.047 873.047,221.464 875,221.464C876.953,221.464 878.536,223.047 878.536,225Z" style="fill:white;fill-rule:nonzero;"/>
                <path d="M878.536,275C878.536,276.953 876.953,278.536 875,278.536C873.047,278.536 871.464,276.953 871.464,275C871.464,273.047 873.047,271.464 875,271.464C876.953,271.464 878.536,273.047 878.536,275Z" style="fill:white;fill-rule:nonzero;"/>
                <path d="M878.536,325C878.536,326.953 876.953,328.536 875,328.536C873.047,328.536 871.464,326.953 871.464,325C871.464,323.047 873.047,321.464 875,321.464C876.953,321.464 878.536,323.047 878.536,325Z" style="fill:white;fill-rule:nonzero;"/>
                <path d="M878.536,375C878.536,376.953 876.953,378.536 875,378.536C873.047,378.536 871.464,376.953 871.464,375C871.464,373.047 873.047,371.464 875,371.464C876.953,371.464 878.536,373.047 878.536,375Z" style="fill:white;fill-rule:nonzero;"/>
                <path d="M878.536,425C878.536,426.953 876.953,428.536 875,428.536C873.047,428.536 871.464,426.953 871.464,425C871.464,423.047 873.047,421.464 875,421.464C876.953,421.464 878.536,423.047 878.536,425Z" style="fill:white;fill-rule:nonzero;"/>
                <path d="M878.536,475C878.536,476.953 876.953,478.536 875,478.536C873.047,478.536 871.464,476.953 871.464,475C871.464,473.047 873.047,471.464 875,471.464C876.953,471.464 878.536,473.047 878.536,475Z" style="fill:white;fill-rule:nonzero;"/>
                <path d="M878.536,525C878.536,526.953 876.953,528.536 875,528.536C873.047,528.536 871.464,526.953 871.464,525C871.464,523.047 873.047,521.464 875,521.464C876.953,521.464 878.536,523.047 878.536,525Z" style="fill:white;fill-rule:nonzero;"/>
                <path d="M878.536,575C878.536,576.953 876.953,578.536 875,578.536C873.047,578.536 871.464,576.953 871.464,575C871.464,573.047 873.047,571.464 875,571.464C876.953,571.464 878.536,573.047 878.536,575Z" style="fill:white;fill-rule:nonzero;"/>
                <path d="M878.536,625C878.536,626.953 876.953,628.536 875,628.536C873.047,628.536 871.464,626.953 871.464,625C871.464,623.047 873.047,621.464 875,621.464C876.953,621.464 878.536,623.047 878.536,625Z" style="fill:white;fill-rule:nonzero;"/>
                <path d="M828.536,25C828.536,26.953 826.953,28.536 825,28.536C823.047,28.536 821.464,26.953 821.464,25C821.464,23.048 823.047,21.465 825,21.465C826.953,21.465 828.536,23.048 828.536,25Z" style="fill:white;fill-rule:nonzero;"/>
                <path d="M828.536,75C828.536,76.953 826.953,78.536 825,78.536C823.047,78.536 821.464,76.953 821.464,75C821.464,73.048 823.047,71.465 825,71.465C826.953,71.465 828.536,73.048 828.536,75Z" style="fill:white;fill-rule:nonzero;"/>
                <path d="M828.536,125C828.536,126.953 826.953,128.536 825,128.536C823.047,128.536 821.464,126.953 821.464,125C821.464,123.047 823.047,121.464 825,121.464C826.953,121.464 828.536,123.047 828.536,125Z" style="fill:white;fill-rule:nonzero;"/>
                <path d="M828.536,175C828.536,176.953 826.953,178.536 825,178.536C823.047,178.536 821.464,176.953 821.464,175C821.464,173.047 823.047,171.464 825,171.464C826.953,171.464 828.536,173.047 828.536,175Z" style="fill:white;fill-rule:nonzero;"/>
                <path d="M828.536,225C828.536,226.953 826.953,228.536 825,228.536C823.047,228.536 821.464,226.953 821.464,225C821.464,223.047 823.047,221.464 825,221.464C826.953,221.464 828.536,223.047 828.536,225Z" style="fill:white;fill-rule:nonzero;"/>
                <path d="M828.536,275C828.536,276.953 826.953,278.536 825,278.536C823.047,278.536 821.464,276.953 821.464,275C821.464,273.047 823.047,271.464 825,271.464C826.953,271.464 828.536,273.047 828.536,275Z" style="fill:white;fill-rule:nonzero;"/>
                <path d="M828.536,325C828.536,326.953 826.953,328.536 825,328.536C823.047,328.536 821.464,326.953 821.464,325C821.464,323.047 823.047,321.464 825,321.464C826.953,321.464 828.536,323.047 828.536,325Z" style="fill:white;fill-rule:nonzero;"/>
                <path d="M828.536,375C828.536,376.953 826.953,378.536 825,378.536C823.047,378.536 821.464,376.953 821.464,375C821.464,373.047 823.047,371.464 825,371.464C826.953,371.464 828.536,373.047 828.536,375Z" style="fill:white;fill-rule:nonzero;"/>
                <path d="M828.536,425C828.536,426.953 826.953,428.536 825,428.536C823.047,428.536 821.464,426.953 821.464,425C821.464,423.047 823.047,421.464 825,421.464C826.953,421.464 828.536,423.047 828.536,425Z" style="fill:white;fill-rule:nonzero;"/>
                <path d="M828.536,475C828.536,476.953 826.953,478.536 825,478.536C823.047,478.536 821.464,476.953 821.464,475C821.464,473.047 823.047,471.464 825,471.464C826.953,471.464 828.536,473.047 828.536,475Z" style="fill:white;fill-rule:nonzero;"/>
                <path d="M828.536,525C828.536,526.953 826.953,528.536 825,528.536C823.047,528.536 821.464,526.953 821.464,525C821.464,523.047 823.047,521.464 825,521.464C826.953,521.464 828.536,523.047 828.536,525Z" style="fill:white;fill-rule:nonzero;"/>
                <path d="M828.536,575C828.536,576.953 826.953,578.536 825,578.536C823.047,578.536 821.464,576.953 821.464,575C821.464,573.047 823.047,571.464 825,571.464C826.953,571.464 828.536,573.047 828.536,575Z" style="fill:white;fill-rule:nonzero;"/>
                <path d="M828.536,625C828.536,626.953 826.953,628.536 825,628.536C823.047,628.536 821.464,626.953 821.464,625C821.464,623.047 823.047,621.464 825,621.464C826.953,621.464 828.536,623.047 828.536,625Z" style="fill:white;fill-rule:nonzero;"/>
                <path d="M778.536,25C778.536,26.953 776.953,28.536 775,28.536C773.047,28.536 771.464,26.953 771.464,25C771.464,23.048 773.047,21.465 775,21.465C776.953,21.465 778.536,23.048 778.536,25Z" style="fill:white;fill-rule:nonzero;"/>
                <path d="M778.536,75C778.536,76.953 776.953,78.536 775,78.536C773.047,78.536 771.464,76.953 771.464,75C771.464,73.048 773.047,71.465 775,71.465C776.953,71.465 778.536,73.048 778.536,75Z" style="fill:white;fill-rule:nonzero;"/>
                <path d="M778.536,125C778.536,126.953 776.953,128.536 775,128.536C773.047,128.536 771.464,126.953 771.464,125C771.464,123.047 773.047,121.464 775,121.464C776.953,121.464 778.536,123.047 778.536,125Z" style="fill:white;fill-rule:nonzero;"/>
                <path d="M778.536,175C778.536,176.953 776.953,178.536 775,178.536C773.047,178.536 771.464,176.953 771.464,175C771.464,173.047 773.047,171.464 775,171.464C776.953,171.464 778.536,173.047 778.536,175Z" style="fill:white;fill-rule:nonzero;"/>
                <path d="M778.536,225C778.536,226.953 776.953,228.536 775,228.536C773.047,228.536 771.464,226.953 771.464,225C771.464,223.047 773.047,221.464 775,221.464C776.953,221.464 778.536,223.047 778.536,225Z" style="fill:white;fill-rule:nonzero;"/>
                <path d="M778.536,275C778.536,276.953 776.953,278.536 775,278.536C773.047,278.536 771.464,276.953 771.464,275C771.464,273.047 773.047,271.464 775,271.464C776.953,271.464 778.536,273.047 778.536,275Z" style="fill:white;fill-rule:nonzero;"/>
                <path d="M778.536,325C778.536,326.953 776.953,328.536 775,328.536C773.047,328.536 771.464,326.953 771.464,325C771.464,323.047 773.047,321.464 775,321.464C776.953,321.464 778.536,323.047 778.536,325Z" style="fill:white;fill-rule:nonzero;"/>
                <path d="M778.536,375C778.536,376.953 776.953,378.536 775,378.536C773.047,378.536 771.464,376.953 771.464,375C771.464,373.047 773.047,371.464 775,371.464C776.953,371.464 778.536,373.047 778.536,375Z" style="fill:white;fill-rule:nonzero;"/>
                <path d="M778.536,425C778.536,426.953 776.953,428.536 775,428.536C773.047,428.536 771.464,426.953 771.464,425C771.464,423.047 773.047,421.464 775,421.464C776.953,421.464 778.536,423.047 778.536,425Z" style="fill:white;fill-rule:nonzero;"/>
                <path d="M778.536,475C778.536,476.953 776.953,478.536 775,478.536C773.047,478.536 771.464,476.953 771.464,475C771.464,473.047 773.047,471.464 775,471.464C776.953,471.464 778.536,473.047 778.536,475Z" style="fill:white;fill-rule:nonzero;"/>
                <path d="M778.536,525C778.536,526.953 776.953,528.536 775,528.536C773.047,528.536 771.464,526.953 771.464,525C771.464,523.047 773.047,521.464 775,521.464C776.953,521.464 778.536,523.047 778.536,525Z" style="fill:white;fill-rule:nonzero;"/>
                <path d="M778.536,575C778.536,576.953 776.953,578.536 775,578.536C773.047,578.536 771.464,576.953 771.464,575C771.464,573.047 773.047,571.464 775,571.464C776.953,571.464 778.536,573.047 778.536,575Z" style="fill:white;fill-rule:nonzero;"/>
                <path d="M778.536,625C778.536,626.953 776.953,628.536 775,628.536C773.047,628.536 771.464,626.953 771.464,625C771.464,623.047 773.047,621.464 775,621.464C776.953,621.464 778.536,623.047 778.536,625Z" style="fill:white;fill-rule:nonzero;"/>
                <path d="M728.536,25C728.536,26.953 726.953,28.536 725,28.536C723.047,28.536 721.464,26.953 721.464,25C721.464,23.048 723.047,21.465 725,21.465C726.953,21.465 728.536,23.048 728.536,25Z" style="fill:white;fill-rule:nonzero;"/>
                <path d="M728.536,75C728.536,76.953 726.953,78.536 725,78.536C723.047,78.536 721.464,76.953 721.464,75C721.464,73.048 723.047,71.465 725,71.465C726.953,71.465 728.536,73.048 728.536,75Z" style="fill:white;fill-rule:nonzero;"/>
                <path d="M728.536,125C728.536,126.953 726.953,128.536 725,128.536C723.047,128.536 721.464,126.953 721.464,125C721.464,123.047 723.047,121.464 725,121.464C726.953,121.464 728.536,123.047 728.536,125Z" style="fill:white;fill-rule:nonzero;"/>
                <path d="M728.536,175C728.536,176.953 726.953,178.536 725,178.536C723.047,178.536 721.464,176.953 721.464,175C721.464,173.047 723.047,171.464 725,171.464C726.953,171.464 728.536,173.047 728.536,175Z" style="fill:white;fill-rule:nonzero;"/>
                <path d="M728.536,225C728.536,226.953 726.953,228.536 725,228.536C723.047,228.536 721.464,226.953 721.464,225C721.464,223.047 723.047,221.464 725,221.464C726.953,221.464 728.536,223.047 728.536,225Z" style="fill:white;fill-rule:nonzero;"/>
                <path d="M728.536,275C728.536,276.953 726.953,278.536 725,278.536C723.047,278.536 721.464,276.953 721.464,275C721.464,273.047 723.047,271.464 725,271.464C726.953,271.464 728.536,273.047 728.536,275Z" style="fill:white;fill-rule:nonzero;"/>
                <path d="M728.536,325C728.536,326.953 726.953,328.536 725,328.536C723.047,328.536 721.464,326.953 721.464,325C721.464,323.047 723.047,321.464 725,321.464C726.953,321.464 728.536,323.047 728.536,325Z" style="fill:white;fill-rule:nonzero;"/>
                <path d="M728.536,375C728.536,376.953 726.953,378.536 725,378.536C723.047,378.536 721.464,376.953 721.464,375C721.464,373.047 723.047,371.464 725,371.464C726.953,371.464 728.536,373.047 728.536,375Z" style="fill:white;fill-rule:nonzero;"/>
                <path d="M728.536,425C728.536,426.953 726.953,428.536 725,428.536C723.047,428.536 721.464,426.953 721.464,425C721.464,423.047 723.047,421.464 725,421.464C726.953,421.464 728.536,423.047 728.536,425Z" style="fill:white;fill-rule:nonzero;"/>
                <path d="M728.536,475C728.536,476.953 726.953,478.536 725,478.536C723.047,478.536 721.464,476.953 721.464,475C721.464,473.047 723.047,471.464 725,471.464C726.953,471.464 728.536,473.047 728.536,475Z" style="fill:white;fill-rule:nonzero;"/>
                <path d="M728.536,525C728.536,526.953 726.953,528.536 725,528.536C723.047,528.536 721.464,526.953 721.464,525C721.464,523.047 723.047,521.464 725,521.464C726.953,521.464 728.536,523.047 728.536,525Z" style="fill:white;fill-rule:nonzero;"/>
                <path d="M728.536,575C728.536,576.953 726.953,578.536 725,578.536C723.047,578.536 721.464,576.953 721.464,575C721.464,573.047 723.047,571.464 725,571.464C726.953,571.464 728.536,573.047 728.536,575Z" style="fill:white;fill-rule:nonzero;"/>
                <path d="M728.536,625C728.536,626.953 726.953,628.536 725,628.536C723.047,628.536 721.464,626.953 721.464,625C721.464,623.047 723.047,621.464 725,621.464C726.953,621.464 728.536,623.047 728.536,625Z" style="fill:white;fill-rule:nonzero;"/>
                <path d="M678.536,25C678.536,26.953 676.953,28.536 675,28.536C673.047,28.536 671.464,26.953 671.464,25C671.464,23.048 673.047,21.465 675,21.465C676.953,21.465 678.536,23.048 678.536,25Z" style="fill:white;fill-rule:nonzero;"/>
                <path d="M678.536,75C678.536,76.953 676.953,78.536 675,78.536C673.047,78.536 671.464,76.953 671.464,75C671.464,73.048 673.047,71.465 675,71.465C676.953,71.465 678.536,73.048 678.536,75Z" style="fill:white;fill-rule:nonzero;"/>
                <path d="M678.536,125C678.536,126.953 676.953,128.536 675,128.536C673.047,128.536 671.464,126.953 671.464,125C671.464,123.047 673.047,121.464 675,121.464C676.953,121.464 678.536,123.047 678.536,125Z" style="fill:white;fill-rule:nonzero;"/>
                <path d="M678.536,175C678.536,176.953 676.953,178.536 675,178.536C673.047,178.536 671.464,176.953 671.464,175C671.464,173.047 673.047,171.464 675,171.464C676.953,171.464 678.536,173.047 678.536,175Z" style="fill:white;fill-rule:nonzero;"/>
                <path d="M678.536,225C678.536,226.953 676.953,228.536 675,228.536C673.047,228.536 671.464,226.953 671.464,225C671.464,223.047 673.047,221.464 675,221.464C676.953,221.464 678.536,223.047 678.536,225Z" style="fill:white;fill-rule:nonzero;"/>
                <path d="M678.536,275C678.536,276.953 676.953,278.536 675,278.536C673.047,278.536 671.464,276.953 671.464,275C671.464,273.047 673.047,271.464 675,271.464C676.953,271.464 678.536,273.047 678.536,275Z" style="fill:white;fill-rule:nonzero;"/>
                <path d="M678.536,325C678.536,326.953 676.953,328.536 675,328.536C673.047,328.536 671.464,326.953 671.464,325C671.464,323.047 673.047,321.464 675,321.464C676.953,321.464 678.536,323.047 678.536,325Z" style="fill:white;fill-rule:nonzero;"/>
                <path d="M678.536,375C678.536,376.953 676.953,378.536 675,378.536C673.047,378.536 671.464,376.953 671.464,375C671.464,373.047 673.047,371.464 675,371.464C676.953,371.464 678.536,373.047 678.536,375Z" style="fill:white;fill-rule:nonzero;"/>
                <path d="M678.536,425C678.536,426.953 676.953,428.536 675,428.536C673.047,428.536 671.464,426.953 671.464,425C671.464,423.047 673.047,421.464 675,421.464C676.953,421.464 678.536,423.047 678.536,425Z" style="fill:white;fill-rule:nonzero;"/>
                <path d="M678.536,475C678.536,476.953 676.953,478.536 675,478.536C673.047,478.536 671.464,476.953 671.464,475C671.464,473.047 673.047,471.464 675,471.464C676.953,471.464 678.536,473.047 678.536,475Z" style="fill:white;fill-rule:nonzero;"/>
                <path d="M678.536,525C678.536,526.953 676.953,528.536 675,528.536C673.047,528.536 671.464,526.953 671.464,525C671.464,523.047 673.047,521.464 675,521.464C676.953,521.464 678.536,523.047 678.536,525Z" style="fill:white;fill-rule:nonzero;"/>
                <path d="M678.536,575C678.536,576.953 676.953,578.536 675,578.536C673.047,578.536 671.464,576.953 671.464,575C671.464,573.047 673.047,571.464 675,571.464C676.953,571.464 678.536,573.047 678.536,575Z" style="fill:white;fill-rule:nonzero;"/>
                <path d="M678.536,625C678.536,626.953 676.953,628.536 675,628.536C673.047,628.536 671.464,626.953 671.464,625C671.464,623.047 673.047,621.464 675,621.464C676.953,621.464 678.536,623.047 678.536,625Z" style="fill:white;fill-rule:nonzero;"/>
            </g>
        </g>
    </g>
</svg>
